<?xml version="1.0" encoding="utf-8"?>
<!-- Generator: Adobe Illustrator 16.0.0, SVG Export Plug-In . SVG Version: 6.00 Build 0)  -->
<!DOCTYPE svg PUBLIC "-//W3C//DTD SVG 1.1//EN" "http://www.w3.org/Graphics/SVG/1.1/DTD/svg11.dtd">
<svg version="1.1" id="Layer_1" xmlns="http://www.w3.org/2000/svg" xmlns:xlink="http://www.w3.org/1999/xlink" x="0px" y="0px"
	 width="680px" height="220px" viewBox="0 0 680 220" enable-background="new 0 0 680 220" xml:space="preserve">
<g>
	<path d="M278.085,132.064c0.71-0.966,1.066-2.181,1.066-3.653c0-1.521-0.404-2.674-1.215-3.455
		c-0.799-0.781-1.79-1.176-2.954-1.176c-1.309,0-2.342,0.457-3.115,1.363c-0.769,0.909-1.155,2.128-1.155,3.662
		c0,1.428,0.366,2.573,1.097,3.418c0.736,0.851,1.719,1.273,2.967,1.273C276.272,133.497,277.375,133.019,278.085,132.064z
		 M272.922,131.208c-0.42-0.643-0.631-1.456-0.631-2.421c0-1.014,0.211-1.88,0.631-2.594c0.417-0.713,1.094-1.072,2.02-1.072
		c1.042,0,1.776,0.423,2.202,1.259c0.269,0.537,0.402,1.226,0.402,2.075c0,0.946-0.185,1.803-0.558,2.568
		c-0.372,0.774-1.062,1.153-2.066,1.153C274.012,132.177,273.339,131.855,272.922,131.208z M275.743,141.792h1.172l2.275-2.46
		h-1.889L275.743,141.792z M284.293,125.343c0.234-0.075,0.529-0.112,0.894-0.112c0.712,0,1.208,0.283,1.48,0.853
		c0.165,0.338,0.249,0.789,0.249,1.343v5.742h1.56v-5.85c0-0.916-0.126-1.624-0.374-2.118c-0.454-0.905-1.33-1.352-2.627-1.352
		c-0.59,0-1.12,0.118-1.608,0.351c-0.482,0.231-0.94,0.614-1.368,1.153v-1.311h-1.463v9.126h1.543v-4.771
		c0-0.596,0.032-1.052,0.109-1.378c0.079-0.317,0.244-0.63,0.499-0.928C283.506,125.717,283.872,125.467,284.293,125.343z
		 M276.932,142.734c-1.302,0-2.34,0.451-3.11,1.361c-0.773,0.903-1.164,2.126-1.164,3.658c0,1.433,0.37,2.573,1.101,3.422
		c0.732,0.847,1.724,1.273,2.969,1.273c1.497,0,2.602-0.481,3.313-1.44c0.704-0.96,1.062-2.171,1.062-3.646
		c0-1.521-0.407-2.67-1.211-3.457C279.084,143.125,278.096,142.734,276.932,142.734z M278.938,149.976
		c-0.37,0.77-1.06,1.153-2.064,1.153c-0.916,0-1.581-0.323-2.005-0.969c-0.412-0.648-0.622-1.46-0.622-2.427
		c0-1.012,0.21-1.872,0.622-2.59c0.424-0.715,1.098-1.07,2.022-1.07c1.046,0,1.778,0.419,2.202,1.257
		c0.269,0.537,0.408,1.228,0.408,2.076C279.501,148.35,279.308,149.208,278.938,149.976z M268.885,149.508
		c-0.646,0.954-1.579,1.435-2.81,1.435c-1.339,0-2.342-0.456-3.01-1.363c-0.673-0.914-1.009-2.102-1.009-3.564
		c0-1.791,0.366-3.115,1.115-3.982c0.742-0.866,1.723-1.298,2.941-1.298c0.987,0,1.757,0.233,2.306,0.712
		c0.556,0.473,0.92,1.113,1.104,1.913h1.658c-0.096-1.059-0.577-2.005-1.442-2.841c-0.86-0.836-2.075-1.253-3.647-1.253
		c-1.836,0-3.274,0.639-4.318,1.923c-0.968,1.186-1.458,2.697-1.458,4.545c0,2.434,0.648,4.229,1.935,5.396
		c0.979,0.883,2.186,1.32,3.621,1.32c1.673,0,2.995-0.537,3.98-1.613c0.817-0.891,1.306-1.998,1.452-3.318h-1.658
		C269.473,148.338,269.223,149.003,268.885,149.508z M324.806,101.655v4.612c-0.346-0.425-0.661-0.728-0.93-0.895
		c-0.47-0.3-1.05-0.445-1.749-0.445c-1.256,0-2.223,0.488-2.899,1.464c-0.678,0.971-1.014,2.121-1.014,3.449
		c0,1.422,0.37,2.56,1.119,3.412c0.734,0.856,1.613,1.279,2.631,1.279c0.625,0,1.186-0.12,1.67-0.372
		c0.486-0.252,0.91-0.655,1.264-1.219v1.278h1.378v-12.564H324.806z M324.175,112.28c-0.455,0.608-1.039,0.918-1.745,0.918
		c-0.907,0-1.571-0.332-1.983-0.991c-0.413-0.653-0.617-1.476-0.617-2.451c0-1.146,0.23-2.013,0.713-2.597
		c0.479-0.594,1.103-0.892,1.867-0.892c0.693,0,1.273,0.279,1.74,0.833c0.47,0.555,0.707,1.405,0.707,2.555
		C324.856,110.795,324.625,111.668,324.175,112.28z M264.637,132.594c0.682-0.558,1.11-1.444,1.279-2.651h-1.499
		c-0.139,0.674-0.396,1.205-0.77,1.59c-0.372,0.389-0.873,0.581-1.51,0.581c-0.823,0-1.426-0.315-1.818-0.938
		c-0.387-0.621-0.576-1.394-0.576-2.304c0-0.909,0.131-1.67,0.407-2.286c0.421-0.952,1.119-1.433,2.092-1.433
		c0.716,0,1.234,0.186,1.559,0.56c0.323,0.37,0.532,0.834,0.616,1.397h1.499c-0.134-1.219-0.517-2.087-1.163-2.582
		c-0.649-0.5-1.478-0.748-2.505-0.748c-1.204,0-2.197,0.445-2.977,1.339c-0.773,0.887-1.166,2.134-1.166,3.737
		c0,1.306,0.356,2.398,1.062,3.268c0.716,0.875,1.662,1.308,2.854,1.308C263.084,133.432,263.957,133.149,264.637,132.594z
		 M325.616,151.087c-0.214,0-0.353-0.05-0.42-0.149c-0.062-0.095-0.096-0.224-0.096-0.38v-5.26c0-0.862-0.333-1.499-0.998-1.908
		c-0.668-0.409-1.534-0.614-2.609-0.614c-0.921,0-1.732,0.224-2.435,0.659c-0.702,0.445-1.066,1.23-1.093,2.361h1.43
		c0.054-0.472,0.176-0.834,0.365-1.071c0.337-0.436,0.896-0.651,1.698-0.651c0.689,0,1.219,0.114,1.589,0.355
		c0.373,0.236,0.56,0.617,0.56,1.144c0,0.255-0.034,0.452-0.105,0.586c-0.118,0.251-0.353,0.399-0.702,0.444l-2.445,0.301
		c-0.854,0.112-1.547,0.404-2.077,0.866c-0.529,0.467-0.794,1.123-0.794,1.968c0,0.773,0.272,1.416,0.812,1.929
		c0.533,0.519,1.222,0.773,2.067,0.773c0.706,0,1.345-0.154,1.934-0.456c0.585-0.305,1.033-0.655,1.342-1.066
		c0.049,0.362,0.139,0.642,0.268,0.841c0.235,0.37,0.618,0.56,1.145,0.56c0.222,0,0.394-0.01,0.516-0.022
		c0.126-0.022,0.309-0.063,0.547-0.134v-1.13c-0.092,0.021-0.186,0.033-0.274,0.043
		C325.759,151.078,325.681,151.087,325.616,151.087z M323.561,148.723c0,0.938-0.425,1.617-1.273,2.034
		c-0.503,0.244-1.025,0.372-1.564,0.372c-0.441,0-0.828-0.132-1.142-0.384c-0.329-0.253-0.498-0.601-0.498-1.044
		c0-0.588,0.24-1.012,0.72-1.276c0.277-0.16,0.694-0.278,1.245-0.352l0.93-0.114c0.279-0.03,0.574-0.085,0.859-0.171
		c0.299-0.077,0.539-0.179,0.724-0.301V148.723z M298.395,133.341c0.128-0.013,0.312-0.058,0.542-0.124v-1.132
		c-0.092,0.017-0.18,0.028-0.268,0.037c-0.089,0.006-0.17,0.008-0.231,0.008c-0.207,0-0.35-0.041-0.417-0.143
		c-0.059-0.096-0.092-0.224-0.092-0.38v-5.258c0-0.862-0.329-1.5-0.992-1.912c-0.674-0.409-1.537-0.613-2.613-0.613
		c-0.926,0-1.733,0.223-2.443,0.662c-0.693,0.439-1.056,1.227-1.086,2.354h1.426c0.063-0.47,0.186-0.828,0.37-1.066
		c0.332-0.435,0.899-0.652,1.693-0.652c0.695,0,1.229,0.12,1.599,0.355c0.37,0.236,0.546,0.617,0.546,1.142
		c0,0.257-0.029,0.46-0.098,0.594c-0.12,0.246-0.353,0.394-0.713,0.439l-2.435,0.308c-0.857,0.105-1.551,0.393-2.076,0.862
		c-0.522,0.466-0.791,1.119-0.791,1.966c0,0.771,0.269,1.412,0.804,1.929c0.537,0.515,1.229,0.771,2.077,0.771
		c0.696,0,1.345-0.157,1.925-0.456c0.584-0.299,1.033-0.657,1.345-1.066c0.055,0.36,0.143,0.64,0.265,0.841
		c0.234,0.378,0.618,0.56,1.155,0.56C298.096,133.365,298.269,133.36,298.395,133.341z M296.395,129.768
		c0,0.944-0.425,1.618-1.279,2.037c-0.503,0.248-1.025,0.372-1.562,0.372c-0.444,0-0.828-0.126-1.147-0.379
		c-0.328-0.258-0.488-0.605-0.488-1.048c0-0.588,0.24-1.009,0.712-1.277c0.28-0.16,0.697-0.272,1.251-0.342l0.926-0.116
		c0.277-0.036,0.567-0.094,0.865-0.171c0.29-0.085,0.53-0.181,0.724-0.311V129.768z M300.488,120.648v12.52h1.538v-12.52H300.488z
		 M256.728,132.13c-0.22,0-0.352-0.041-0.419-0.143c-0.066-0.096-0.096-0.224-0.096-0.38v-5.258c0-0.862-0.333-1.5-0.997-1.912
		c-0.675-0.409-1.537-0.613-2.61-0.613c-0.919,0-1.733,0.223-2.433,0.662c-0.702,0.439-1.066,1.227-1.095,2.354h1.43
		c0.056-0.47,0.174-0.828,0.364-1.066c0.336-0.435,0.903-0.652,1.695-0.652c0.689,0,1.223,0.12,1.595,0.355
		c0.366,0.236,0.556,0.617,0.556,1.142c0,0.257-0.039,0.46-0.104,0.594c-0.118,0.246-0.354,0.394-0.706,0.439l-2.445,0.308
		c-0.853,0.105-1.545,0.393-2.071,0.862c-0.529,0.466-0.796,1.119-0.796,1.966c0,0.771,0.272,1.412,0.804,1.929
		c0.533,0.515,1.23,0.771,2.075,0.771c0.706,0,1.343-0.157,1.937-0.456c0.584-0.299,1.028-0.657,1.339-1.066
		c0.049,0.36,0.141,0.64,0.269,0.841c0.234,0.378,0.617,0.56,1.146,0.56c0.22,0,0.389-0.005,0.513-0.024
		c0.125-0.013,0.31-0.058,0.55-0.124v-1.132c-0.102,0.017-0.189,0.028-0.28,0.037C256.866,132.128,256.789,132.13,256.728,132.13z
		 M254.675,129.768c0,0.944-0.425,1.618-1.275,2.037c-0.503,0.248-1.027,0.372-1.566,0.372c-0.445,0-0.826-0.126-1.151-0.379
		c-0.32-0.258-0.484-0.605-0.484-1.048c0-0.588,0.239-1.009,0.718-1.277c0.274-0.16,0.694-0.272,1.247-0.342l0.922-0.116
		c0.283-0.036,0.572-0.094,0.865-0.171c0.295-0.085,0.539-0.181,0.726-0.311V129.768z M302.154,142.734
		c-1.304,0-2.339,0.451-3.116,1.361c-0.773,0.903-1.152,2.126-1.152,3.658c0,1.433,0.358,2.573,1.095,3.422
		c0.734,0.847,1.722,1.273,2.975,1.273c1.485,0,2.59-0.481,3.301-1.44c0.714-0.96,1.067-2.171,1.067-3.646
		c0-1.521-0.408-2.67-1.208-3.457C304.304,143.125,303.322,142.734,302.154,142.734z M304.161,149.976
		c-0.373,0.77-1.066,1.153-2.067,1.153c-0.913,0-1.581-0.323-2-0.969c-0.421-0.648-0.631-1.46-0.631-2.427
		c0-1.012,0.21-1.872,0.631-2.59c0.419-0.715,1.093-1.07,2.017-1.07c1.048,0,1.778,0.419,2.203,1.257
		c0.269,0.537,0.403,1.228,0.403,2.076C304.717,148.35,304.537,149.208,304.161,149.976z M294.738,144.171
		c-0.34-0.426-0.648-0.727-0.921-0.896c-0.471-0.299-1.055-0.449-1.744-0.449c-1.266,0-2.228,0.488-2.901,1.463
		c-0.68,0.975-1.02,2.122-1.02,3.458c0,1.417,0.373,2.558,1.117,3.408c0.74,0.856,1.615,1.284,2.631,1.284
		c0.631,0,1.185-0.126,1.677-0.376c0.482-0.251,0.905-0.653,1.263-1.226v1.282h1.374v-12.562h-1.476V144.171z M294.116,150.183
		c-0.458,0.61-1.038,0.912-1.744,0.912c-0.913,0-1.572-0.326-1.981-0.983c-0.419-0.656-0.625-1.477-0.625-2.455
		c0-1.146,0.244-2.011,0.719-2.599c0.479-0.59,1.103-0.887,1.867-0.887c0.692,0,1.272,0.276,1.738,0.828
		c0.472,0.553,0.706,1.406,0.706,2.556C294.796,148.695,294.574,149.574,294.116,150.183z M316.853,113.18
		c-0.211,0-0.35-0.043-0.417-0.143c-0.062-0.092-0.092-0.224-0.092-0.381v-5.257c0-0.867-0.333-1.5-1.001-1.915
		c-0.663-0.406-1.534-0.612-2.605-0.612c-0.92,0-1.736,0.218-2.438,0.661c-0.697,0.444-1.063,1.231-1.094,2.358h1.43
		c0.056-0.47,0.182-0.828,0.366-1.068c0.336-0.432,0.896-0.655,1.703-0.655c0.68,0,1.213,0.122,1.585,0.356
		c0.374,0.24,0.562,0.622,0.562,1.149c0,0.253-0.038,0.448-0.104,0.586c-0.122,0.25-0.358,0.396-0.712,0.443l-2.441,0.302
		c-0.854,0.111-1.547,0.396-2.076,0.864c-0.526,0.464-0.791,1.121-0.791,1.968c0,0.773,0.271,1.412,0.812,1.929
		c0.535,0.515,1.219,0.767,2.063,0.767c0.706,0,1.345-0.146,1.931-0.449c0.592-0.303,1.036-0.657,1.345-1.07
		c0.055,0.366,0.139,0.645,0.265,0.843c0.238,0.376,0.625,0.56,1.156,0.56c0.215,0,0.388-0.009,0.508-0.029
		c0.126-0.016,0.312-0.055,0.552-0.126v-1.131c-0.098,0.019-0.189,0.034-0.274,0.04C316.995,113.178,316.92,113.18,316.853,113.18z
		 M314.806,110.819c0,0.942-0.425,1.62-1.279,2.032c-0.503,0.249-1.025,0.375-1.562,0.375c-0.438,0-0.828-0.128-1.144-0.383
		c-0.328-0.256-0.492-0.601-0.492-1.042c0-0.584,0.244-1.013,0.716-1.279c0.279-0.157,0.693-0.272,1.247-0.352l0.92-0.11
		c0.287-0.034,0.573-0.09,0.868-0.173c0.296-0.077,0.537-0.179,0.727-0.303V110.819z M286.982,142.796
		c-0.608,0-1.144,0.222-1.609,0.663c-0.472,0.435-0.761,0.81-0.883,1.11v-1.574h-1.459v9.125h1.538v-5.247
		c0-0.651,0.206-1.223,0.623-1.716c0.415-0.496,1.009-0.746,1.782-0.746c0.096,0,0.177,0,0.256,0.008
		c0.075,0.01,0.159,0.017,0.247,0.035v-1.612c-0.163-0.02-0.281-0.03-0.344-0.036C287.06,142.798,287.013,142.796,286.982,142.796z
		 M305.386,106.268c-0.342-0.425-0.647-0.728-0.92-0.895c-0.468-0.3-1.052-0.445-1.75-0.445c-1.251,0-2.219,0.488-2.896,1.464
		c-0.676,0.971-1.016,2.121-1.016,3.449c0,1.422,0.374,2.56,1.113,3.412c0.74,0.856,1.623,1.279,2.635,1.279
		c0.631,0,1.19-0.12,1.67-0.372c0.482-0.252,0.912-0.655,1.268-1.219v1.278h1.376v-12.564h-1.479V106.268z M304.763,112.28
		c-0.459,0.608-1.039,0.918-1.745,0.918c-0.907,0-1.566-0.332-1.983-0.991c-0.411-0.653-0.613-1.476-0.613-2.451
		c0-1.146,0.236-2.013,0.71-2.597c0.484-0.594,1.105-0.892,1.872-0.892c0.689,0,1.27,0.279,1.735,0.833
		c0.475,0.555,0.711,1.405,0.711,2.555C305.449,110.795,305.221,111.668,304.763,112.28z M312.3,142.747
		c-0.546,0-1.055,0.119-1.521,0.346c-0.468,0.235-0.871,0.573-1.212,1.007v-4.541h-1.49v12.562h1.419v-1.16
		c0.323,0.439,0.63,0.755,0.913,0.954c0.479,0.334,1.062,0.503,1.766,0.503c1.239,0,2.206-0.48,2.908-1.435
		c0.701-0.956,1.056-2.154,1.056-3.599c0-1.522-0.358-2.674-1.064-3.455C314.36,143.146,313.44,142.747,312.3,142.747z
		 M313.936,150.073c-0.413,0.659-1.034,0.988-1.866,0.988c-1.103,0-1.859-0.5-2.261-1.505c-0.22-0.537-0.329-1.231-0.329-2.092
		c0-1.194,0.269-2.043,0.795-2.56c0.529-0.521,1.14-0.781,1.836-0.781c0.808,0,1.412,0.321,1.825,0.956
		c0.411,0.629,0.622,1.425,0.622,2.385C314.558,148.541,314.347,149.414,313.936,150.073z M246.488,120.648h-1.616v10.118
		l-6.25-10.118h-1.994v12.52h1.617v-10.125l6.341,10.125h1.902V120.648z M274.856,114.532c0.462,0,0.877-0.042,1.243-0.13
		c0.686-0.163,1.253-0.466,1.72-0.922c0.272-0.263,0.524-0.596,0.754-1.009c0.222-0.413,0.351-0.785,0.394-1.121h-1.51
		c-0.112,0.407-0.298,0.763-0.563,1.068c-0.475,0.535-1.109,0.797-1.9,0.797c-0.853,0-1.481-0.282-1.887-0.844
		c-0.406-0.56-0.622-1.301-0.65-2.232h6.637c0-0.92-0.043-1.593-0.135-2.006c-0.096-0.616-0.303-1.151-0.608-1.609
		c-0.315-0.48-0.774-0.873-1.379-1.176c-0.601-0.304-1.231-0.454-1.876-0.454c-1.273,0-2.308,0.458-3.102,1.371
		c-0.791,0.91-1.186,2.101-1.186,3.563c0,1.489,0.393,2.643,1.178,3.471C272.767,114.124,273.729,114.532,274.856,114.532z
		 M273.237,106.992c0.476-0.503,1.06-0.757,1.756-0.757c0.973,0,1.67,0.368,2.091,1.104c0.227,0.392,0.37,0.92,0.428,1.581h-5.023
		C272.515,108.136,272.763,107.497,273.237,106.992z M282.616,108.972c0-0.648,0.214-1.219,0.625-1.717s1.011-0.743,1.786-0.743
		c0.088,0,0.173,0.001,0.25,0.005c0.075,0.008,0.163,0.02,0.255,0.038v-1.613c-0.173-0.019-0.285-0.03-0.356-0.039
		c-0.067-0.004-0.112-0.008-0.148-0.008c-0.604,0-1.142,0.222-1.609,0.659c-0.466,0.439-0.757,0.812-0.879,1.119v-1.583h-1.461v9.13
		h1.538V108.972z M269.011,120.648h-1.555v1.739h1.555V120.648z M266.577,114.22l3.438-9.13h-1.678l-2.54,7.437l-2.441-7.437h-1.782
		l3.367,9.13H266.577z M297.131,101.7h-1.558v1.731h1.558V101.7z M297.131,105.135h-1.558v9.085h1.558V105.135z M242.363,144.171
		c-0.348-0.426-0.648-0.727-0.925-0.896c-0.465-0.299-1.048-0.449-1.746-0.449c-1.254,0-2.224,0.488-2.899,1.463
		c-0.678,0.975-1.014,2.122-1.014,3.458c0,1.417,0.371,2.558,1.109,3.408c0.745,0.856,1.624,1.284,2.635,1.284
		c0.631,0,1.188-0.126,1.671-0.376c0.488-0.251,0.913-0.653,1.267-1.226v1.282h1.376v-12.562h-1.474V144.171z M241.737,150.183
		c-0.458,0.61-1.034,0.912-1.742,0.912c-0.909,0-1.57-0.326-1.981-0.983c-0.415-0.656-0.618-1.477-0.618-2.455
		c0-1.146,0.238-2.011,0.714-2.599c0.476-0.59,1.103-0.887,1.872-0.887c0.689,0,1.266,0.276,1.733,0.828
		c0.47,0.553,0.706,1.406,0.706,2.556C242.421,148.695,242.194,149.574,241.737,150.183z M291.733,112.896
		c-0.438,0.249-0.946,0.375-1.527,0.375c-0.975,0-1.659-0.248-2.054-0.741c-0.207-0.276-0.342-0.667-0.387-1.18h-1.473
		c0.039,0.913,0.346,1.675,0.913,2.291c0.58,0.616,1.541,0.926,2.926,0.926c1.27,0,2.22-0.293,2.841-0.886
		c0.625-0.592,0.938-1.292,0.938-2.104c0-0.844-0.29-1.461-0.893-1.852c-0.381-0.25-1.138-0.507-2.255-0.775l-1.031-0.246
		c-0.454-0.111-0.794-0.233-1.025-0.376c-0.403-0.236-0.604-0.55-0.604-0.954c0-0.358,0.155-0.649,0.458-0.875
		c0.307-0.218,0.755-0.332,1.349-0.332c0.886,0,1.514,0.206,1.87,0.606c0.228,0.281,0.346,0.601,0.383,0.946h1.45
		c0.009-0.594-0.181-1.142-0.563-1.658c-0.618-0.806-1.622-1.209-3.014-1.209c-1.067,0-1.918,0.269-2.547,0.798
		c-0.631,0.535-0.946,1.233-0.946,2.096c0,0.734,0.336,1.311,1.001,1.72c0.383,0.244,0.958,0.459,1.758,0.65l1.235,0.31
		c0.665,0.163,1.11,0.308,1.331,0.434c0.354,0.205,0.53,0.505,0.53,0.895C292.396,112.272,292.183,112.656,291.733,112.896z
		 M253.758,146.032c-0.102-0.61-0.306-1.147-0.61-1.604c-0.317-0.479-0.781-0.874-1.384-1.178c-0.603-0.307-1.229-0.455-1.874-0.455
		c-1.273,0-2.312,0.459-3.103,1.369c-0.788,0.915-1.185,2.102-1.185,3.568c0,1.487,0.393,2.645,1.177,3.467
		c0.783,0.826,1.747,1.239,2.874,1.239c0.462,0,0.877-0.051,1.248-0.137c0.677-0.16,1.247-0.464,1.715-0.921
		c0.278-0.263,0.526-0.597,0.751-1.008c0.224-0.411,0.354-0.785,0.391-1.123h-1.504c-0.105,0.405-0.297,0.763-0.563,1.068
		c-0.475,0.535-1.107,0.798-1.902,0.798c-0.854,0-1.481-0.279-1.889-0.845c-0.404-0.556-0.62-1.304-0.646-2.229h6.639
		C253.892,147.117,253.847,146.449,253.758,146.032z M247.285,146.824c0.028-0.781,0.277-1.427,0.751-1.932
		c0.474-0.502,1.058-0.754,1.754-0.754c0.98,0,1.673,0.368,2.09,1.101c0.226,0.395,0.37,0.919,0.431,1.585H247.285z
		 M250.563,109.444c0-0.595,0.038-1.054,0.115-1.374c0.078-0.323,0.238-0.63,0.495-0.93c0.317-0.376,0.686-0.626,1.106-0.749
		c0.23-0.072,0.529-0.111,0.894-0.111c0.718,0,1.21,0.285,1.48,0.856c0.167,0.334,0.251,0.785,0.251,1.335v5.748h1.552v-5.854
		c0-0.918-0.12-1.62-0.372-2.116c-0.455-0.903-1.324-1.355-2.618-1.355c-0.591,0-1.128,0.114-1.607,0.353
		c-0.488,0.231-0.944,0.616-1.374,1.153v-1.311h-1.463v9.13h1.541V109.444z M260.289,105.135h-1.561v9.085h1.561V105.135z
		 M260.289,101.7h-1.561v1.731h1.561V101.7z M241.683,114.547c2.122,0,3.561-0.755,4.325-2.267c0.411-0.826,0.622-2.012,0.622-3.553
		V101.7h-1.709v7.737c0,0.899-0.141,1.616-0.423,2.153c-0.522,0.982-1.502,1.477-2.952,1.477c-1.205,0-2.06-0.457-2.572-1.365
		c-0.342-0.604-0.515-1.358-0.515-2.265V101.7h-1.711v7.027c0,1.541,0.204,2.727,0.627,3.553
		C238.132,113.792,239.566,114.547,241.683,114.547z M267.456,133.168h1.555v-9.083h-1.555V133.168z M180.872,110.391
		l-11.138-11.559h-0.315v17.859h2.928V105.7l11.164,11.557h0.317V99.399h-2.956V110.391z M162.628,109.411
		c0,3.396-1.445,5.132-4.157,5.132c-2.759,0-4.199-1.711-4.199-5.057V99.399h-3.079v10.107c0,5.061,2.687,7.75,7.205,7.75
		c4.13,0,6.938-2.738,6.938-7.799V99.399h-2.707V109.411z M190.058,108.021c0-3.814,2.495-6.4,5.864-6.4
		c1.711,0,3.204,0.729,4.571,2.197l0.313-3.367c-1.587-1.103-3.245-1.644-5.082-1.644c-5.006,0-8.794,3.91-8.794,9.236
		c0,3.029,1.219,5.618,3.352,7.329c1.512,1.221,3.392,1.884,5.369,1.884c1.882,0,3.664-0.59,5.208-1.688l0.171-3.833
		c-1.687,1.709-3.351,2.562-5.279,2.562C192.431,114.297,190.058,111.662,190.058,108.021z M85.206,95.33h0.535c0,0,0-0.845,0-0.926
		c0.082,0,0.471,0,0.471,0V93.94c0,0-0.389,0-0.471,0c0-0.075,0-0.462,0-0.462h-0.535c0,0,0,0.387,0,0.462c-0.079,0-0.461,0-0.461,0
		v0.464c0,0,0.382,0,0.461,0C85.206,94.485,85.206,95.33,85.206,95.33z M83.591,97.7h0.537v-2.224h-0.537V97.7z M88.062,96.543
		c-0.072-0.062-0.131-0.114-0.293-0.148l-0.371-0.09c-0.107-0.022-0.136-0.047-0.169-0.063L87.2,96.223
		c-0.055-0.026-0.079-0.066-0.079-0.128c0-0.067,0.024-0.118,0.081-0.158c0.06-0.039,0.146-0.058,0.253-0.058
		c0.173,0,0.361,0.103,0.457,0.197l0.043,0.047l0.242-0.423l-0.032-0.026c-0.155-0.12-0.405-0.256-0.68-0.256
		c-0.283,0-0.496,0.066-0.651,0.201c-0.146,0.134-0.22,0.303-0.22,0.507c0,0.224,0.075,0.393,0.232,0.5
		c0.1,0.067,0.188,0.124,0.415,0.169l0.233,0.049c0.098,0.022,0.127,0.047,0.171,0.073l0.039,0.024
		c0.045,0.026,0.063,0.069,0.063,0.12c0,0.102-0.045,0.161-0.155,0.199c-0.065,0.024-0.141,0.035-0.248,0.035
		c-0.193,0-0.425-0.133-0.488-0.206l-0.045-0.051l-0.234,0.419l0.029,0.021c0.154,0.126,0.413,0.274,0.759,0.274
		c0.285,0,0.504-0.073,0.663-0.203c0.158-0.139,0.236-0.313,0.236-0.521c0-0.204-0.063-0.362-0.197-0.473L88.062,96.543z
		 M85.837,96.29h-0.725c0-0.085,0-0.813,0-0.813h-0.541V97.7h0.541c0,0,0-0.864,0-0.948h0.725c0,0.084,0,0.948,0,0.948h0.539v-2.224
		h-0.539C85.837,95.477,85.837,96.205,85.837,96.29z M81.854,106.29c0,0-1.052,0-1.303,0c-0.183-0.181-0.919-0.923-0.919-0.923
		s-0.741,0.742-0.922,0.923c-0.257,0-1.312,0-1.312,0s0,1.05,0,1.299c-0.179,0.179-0.917,0.924-0.917,0.924s0.738,0.744,0.917,0.925
		c0,0.251,0,1.305,0,1.305s1.056,0,1.312,0c0.181,0.175,0.922,0.92,0.922,0.92s0.736-0.745,0.919-0.92c0.251,0,1.303,0,1.303,0
		s0-1.054,0-1.305c0.185-0.181,0.92-0.925,0.92-0.925s-0.735-0.745-0.92-0.924C81.854,107.34,81.854,106.29,81.854,106.29z
		 M80.922,109.049c0,0,0,0.48,0,0.762c-0.275,0-0.761,0-0.761,0s-0.336,0.34-0.537,0.535c-0.193-0.195-0.529-0.535-0.529-0.535
		s-0.482,0-0.764,0c0-0.281,0-0.762,0-0.762s-0.337-0.333-0.534-0.536c0.197-0.2,0.534-0.538,0.534-0.538s0-0.478,0-0.761
		c0.281,0,0.764,0,0.764,0s0.336-0.34,0.529-0.537c0.201,0.197,0.537,0.537,0.537,0.537s0.485,0,0.761,0c0,0.283,0,0.761,0,0.761
		s0.342,0.338,0.539,0.538C81.264,108.716,80.922,109.049,80.922,109.049z M82.531,129.108c0.018,0.013,0.03,0.03,0.053,0.047
		c0.282,0.224,0.567,0.415,0.847,0.572c1.067-0.562,1.794-1.681,1.794-2.977H84.31C84.31,127.874,83.555,128.821,82.531,129.108z
		 M83.848,125.874H82.93c0,0.992-0.58,1.841-1.429,2.226c0.221,0.252,0.438,0.481,0.66,0.688
		C83.166,128.203,83.848,127.119,83.848,125.874z M105.786,110.404h-2.939c-0.405-0.722-0.984-1.259-1.722-1.587
		c1.03-0.278,1.75-1.115,1.75-2.1c0-0.045,0-0.092-0.002-0.137c-0.071-1.074-0.763-2.284-2.448-2.291
		c-0.081-0.169-0.195-0.506-0.241-1.139c-0.003-0.062-0.003-0.131-0.003-0.204c0-0.759,0.249-1.654,0.531-2.684
		c0.358-1.283,0.76-2.722,0.76-4.274c0-0.193-0.003-0.379-0.015-0.571c-0.139-2.033-0.905-3.722-2.226-4.878
		c-1.331-1.167-3.183-1.735-5.213-1.603c-0.364,0.024-0.714,0.085-1.042,0.177c0.321-0.232,0.567-0.486,0.706-0.759l3.572-6.065
		l-0.569-1.196l-1.322,0.059c0,0-0.229,0.383-0.33,0.548c-0.16-0.102-0.557-0.338-0.557-0.338l-1.132,0.637l0.065,1.266
		c0,0,0.354,0.22,0.496,0.313c-0.116,0.193-0.152,0.257-0.274,0.468c-0.432-0.31-1.155-0.773-2.032-1.149
		c0.096-0.37,0.203-0.757,0.312-1.168c0.21,0.06,0.659,0.186,0.659,0.186l1.038-0.899l-0.432-1.298c0,0-0.451-0.127-0.661-0.186
		c0.055-0.21,0.18-0.661,0.18-0.661l-0.897-1.033l-1.305,0.427c0,0-0.118,0.45-0.179,0.667c-0.214-0.061-0.663-0.183-0.663-0.183
		l-1.042,0.891l0.439,1.309c0,0,0.452,0.122,0.663,0.179c-0.104,0.373-0.187,0.687-0.286,1.051c-0.538-0.12-1.494-0.306-2.606-0.39
		v-1.356c0.269,0,0.799,0,0.799,0l0.867-1.309l-0.867-1.312c0,0-0.53,0-0.799,0c0-0.271,0-0.783,0-0.783l-1.303-0.939l-1.314,0.939
		c0,0,0,0.513,0,0.783c-0.269,0-0.793,0-0.793,0l-0.869,1.312l0.869,1.309c0,0,0.524,0,0.793,0v1.356
		c-1.112,0.084-2.064,0.27-2.602,0.39c-0.101-0.364-0.184-0.678-0.291-1.051c0.216-0.057,0.667-0.179,0.667-0.179l0.439-1.309
		l-1.04-0.891c0,0-0.459,0.122-0.665,0.183c-0.053-0.217-0.185-0.667-0.185-0.667l-1.299-0.427l-0.897,1.033
		c0,0,0.122,0.451,0.182,0.661c-0.208,0.059-0.663,0.186-0.663,0.186l-0.43,1.298l1.038,0.899c0,0,0.449-0.126,0.657-0.186
		c0.107,0.411,0.213,0.798,0.315,1.168c-0.879,0.376-1.605,0.84-2.035,1.149c-0.124-0.211-0.161-0.274-0.272-0.468
		c0.143-0.094,0.496-0.313,0.496-0.313l0.062-1.266l-1.13-0.637c0,0-0.396,0.236-0.557,0.338c-0.106-0.165-0.33-0.548-0.33-0.548
		l-1.326-0.059l-0.565,1.196l3.564,6.055c0.138,0.279,0.387,0.535,0.712,0.77c-0.33-0.092-0.678-0.152-1.042-0.177
		c-2.028-0.133-3.882,0.436-5.215,1.603c-1.316,1.156-2.081,2.845-2.224,4.878c-0.01,0.192-0.014,0.378-0.014,0.571
		c0,1.553,0.402,2.991,0.754,4.274c0.291,1.029,0.538,1.925,0.538,2.684c0,0.073,0,0.143-0.005,0.204
		c-0.044,0.633-0.156,0.97-0.237,1.139c-1.689,0.007-2.379,1.217-2.45,2.291c-0.002,0.045-0.002,0.092-0.002,0.137
		c0,0.984,0.721,1.821,1.748,2.1c-0.732,0.328-1.314,0.865-1.722,1.587h-2.941l-2.762,2.763l2.448,2.45
		c-0.1,1.739-0.401,2.979-0.973,4.148c-0.644,1.309-0.694,2.98-0.694,3.463c0,1.19,0.326,4.226,3.359,6.647
		c1.406,1.119,2.586,1.365,3.733,1.615c0.792,0.169,1.54,0.327,2.413,0.761c1.927,0.965,2.594,1.837,3.132,2.533l0.104,0.136
		c3.351,4.324,7.774,4.786,9.52,4.786c1.735,0,6.161-0.462,9.512-4.786l0.103-0.136c0.537-0.696,1.208-1.568,3.135-2.533
		c0.871-0.434,1.619-0.592,2.413-0.761c1.147-0.25,2.325-0.496,3.733-1.615c3.031-2.422,3.359-5.457,3.359-6.647
		c0-0.482-0.055-2.154-0.7-3.463c-0.571-1.17-0.869-2.409-0.971-4.148l2.45-2.45L105.786,110.404z M102.039,110.866
		c0.04,0.063,0.071,0.141,0.111,0.212c0.039,0.081,0.073,0.167,0.106,0.248c0.239,0.643,0.319,1.349,0.319,2.012
		c0,1.201-0.269,2.625-0.676,4.065c-0.745,2.655-1.915,5.355-2.552,6.732c-0.248-0.592-0.65-1.572-0.65-1.572
		s-1.093,0.286-1.776,0.464c0.691-1.079,1.852-2.916,3.108-4.959c0.83-1.343,1.418-3.212,1.418-4.802
		c0-0.646-0.105-1.234-0.319-1.735c-0.047-0.12-0.107-0.237-0.173-0.348v-0.01l0,0c-0.359-0.588-0.971-1.018-1.792-1.018
		c-1.107,0-1.85,0.922-1.85,1.778h0.922c0-0.021,0.004-0.055,0.012-0.081c0.045-0.349,0.362-0.766,0.916-0.766
		c0.415,0,0.698,0.179,0.894,0.426c0.044,0.057,0.091,0.117,0.123,0.185c0.027,0.045,0.049,0.104,0.071,0.15
		c0.082,0.193,0.116,0.397,0.116,0.568c0,1.031-0.697,1.703-1.792,1.703c-1.25,0-2.155-0.927-2.155-2.212
		c0-1.032,0.853-2.554,2.68-2.554C100.659,109.354,101.549,109.993,102.039,110.866z M75.649,112.098
		c0.035-4.313,0.802-8.387,2.176-11.714v4.659c0,0,1.428-1.428,1.799-1.805c0.376,0.377,1.805,1.812,1.805,1.812v-4.106l8.732,5.762
		H83.11c0,0,1.421,1.429,1.795,1.801c-0.374,0.373-1.795,1.799-1.795,1.799h12.214c0.028,0.596,0.051,1.19,0.06,1.793H75.649z
		 M95.378,113.023c-0.078,4.974-1.121,9.627-2.965,13.151c-1.868,3.566-4.315,5.532-6.896,5.532c-2.588,0-5.035-1.966-6.903-5.532
		c-1.837-3.524-2.883-8.178-2.965-13.151H95.378z M73.06,101.417c-0.25-1.103-0.506-2.239-0.506-3.73
		c0-0.287,0.008-0.584,0.032-0.899c0.161-2.488,1.621-3.534,2.474-3.939c0.257-0.126,0.537-0.218,0.804-0.282
		c-0.291,0.374-0.484,0.858-0.513,1.338c-0.008,0.073-0.008,0.139-0.008,0.208c0,1.463,1.033,2.526,2.58,2.631
		c0.269,0.021,0.53,0.008,0.783-0.028c-0.319,0.476-0.625,0.992-0.909,1.54c-1.665,3.174-2.692,7.213-2.993,11.57
		c-0.592-0.775-1.522-1.343-2.706-1.39c0.655-0.509,1.249-1.516,1.377-3.469c0.013-0.188,0.015-0.368,0.015-0.547
		C73.489,103.342,73.281,102.406,73.06,101.417z M89.768,93.773c0.005,0.022,0.011,0.043,0.011,0.063
		c-0.633-0.507-1.292-0.89-1.974-1.162c-0.015-0.436,0.012-1.326,0.419-2.085c1.203-0.155,2.338-0.401,3.273-0.739
		c-0.226,0.171-0.431,0.36-0.614,0.572C90.094,91.324,89.687,92.545,89.768,93.773z M85.518,89.83c-4.34,0-7.162-1.23-7.369-1.937
		v-0.002c-0.008-0.028-0.013-0.057-0.013-0.079c0-1.07,2.942-2.685,7.382-2.685c4.428,0,7.369,1.614,7.369,2.685
		C92.887,88.498,90.019,89.83,85.518,89.83z M87.166,90.693c-0.226,0.622-0.283,1.237-0.289,1.688
		c-0.452-0.104-0.903-0.158-1.359-0.158c-0.466,0-0.917,0.055-1.363,0.158c-0.01-0.451-0.073-1.066-0.293-1.688
		c0.548,0.043,1.104,0.066,1.656,0.066C86.063,90.76,86.62,90.736,87.166,90.693z M82.808,90.59
		c0.403,0.759,0.428,1.649,0.415,2.085c-0.682,0.272-1.343,0.655-1.972,1.162c0-0.021,0.004-0.041,0.004-0.063
		c0.086-1.229-0.323-2.449-1.11-3.351c-0.18-0.212-0.391-0.401-0.61-0.568C80.466,90.188,81.599,90.435,82.808,90.59z
		 M85.518,93.153c2.58,0,5.027,1.965,6.896,5.532c1.005,1.927,1.771,4.19,2.278,6.657l-14.25-9.41
		C81.959,94.119,83.701,93.153,85.518,93.153z M94.922,106.605c0.12,0.759,0.224,1.538,0.299,2.322L78.907,98.16
		c0.303-0.539,0.623-1.044,0.956-1.502L94.922,106.605z M85.345,107.631c1.425,0,5.322,0,6.222,0l2.647,1.748
		c-2.562,0-7.538-0.002-8.869-0.002c0.261-0.265,0.867-0.871,0.867-0.871S85.605,107.899,85.345,107.631z M80.503,100.329v2.474
		c-0.265-0.269-0.871-0.875-0.871-0.875s-0.616,0.606-0.875,0.871v-3.623L80.503,100.329z M93.229,98.254
		c-0.284-0.548-0.588-1.064-0.903-1.54c0.249,0.036,0.509,0.049,0.779,0.028c1.547-0.104,2.58-1.168,2.58-2.631
		c0-0.069,0-0.135-0.008-0.208c-0.028-0.479-0.22-0.964-0.515-1.338c0.271,0.064,0.549,0.156,0.808,0.282
		c0.851,0.405,2.312,1.451,2.472,3.939c0.021,0.315,0.035,0.612,0.035,0.899c0,1.491-0.259,2.628-0.511,3.73
		c-0.22,0.989-0.428,1.925-0.428,3.002c0,0.179,0.004,0.359,0.013,0.547c0.13,1.953,0.724,2.96,1.379,3.469
		c-1.184,0.047-2.118,0.614-2.706,1.39C95.927,105.467,94.894,101.428,93.229,98.254z M94.077,89.863
		c1.784-0.118,3.396,0.37,4.544,1.375c1.133,0.991,1.792,2.456,1.91,4.238c0.105,1.615-0.327,3.17-0.71,4.543
		c-0.319,1.147-0.627,2.238-0.562,3.198c0.089,1.367,0.513,1.801,0.639,1.907l0.139,0.107l0.181-0.015
		c1.467-0.093,1.697,0.965,1.726,1.427c0.049,0.698-0.593,1.284-1.451,1.343c-1.491,0.1-1.92-1.622-2.016-3.089
		c-0.077-1.184,0.136-2.146,0.395-3.273c0.299-1.316,0.633-2.813,0.498-4.896c-0.143-2.162-1.239-3.884-3.001-4.72
		c-1.381-0.655-2.95-0.64-3.908,0.047l0.01,0.008c-0.537,0.348-0.858,0.94-0.858,1.52c0,0.031,0,0.062,0,0.094l0.932-0.055
		c-0.026-0.37,0.265-0.897,0.888-0.937c0.325-0.02,0.608,0.071,0.84,0.273c0.325,0.282,0.466,0.714,0.479,1.003
		c0.073,1.054-0.599,1.782-1.711,1.855c-0.633,0.043-1.187-0.132-1.609-0.499c-0.432-0.386-0.688-0.939-0.729-1.609
		c-0.067-0.984,0.252-1.959,0.879-2.677C92.191,90.337,93.06,89.926,94.077,89.863z M77.532,86.84
		c-0.914-1.555-2.541-4.317-2.71-4.601c0.036-0.081,0.046-0.1,0.095-0.193c0.096,0.011,0.108,0.011,0.204,0.013
		c0.132,0.213,0.554,0.913,0.554,0.913s0.682-0.409,0.895-0.535c0.071,0.037,0.079,0.045,0.154,0.086
		c-0.002,0.102-0.002,0.124-0.01,0.213c-0.199,0.127-0.853,0.55-0.853,0.55l1.284,2.141l0.419-0.344
		c0.006-0.011,1.134-0.935,2.58-1.474l0.395-0.15l-0.771-2.867c0,0-0.825,0.225-1.084,0.295c-0.079-0.07-0.098-0.085-0.191-0.17
		c0.041-0.11,0.047-0.137,0.083-0.238c0.255-0.069,1.077-0.299,1.077-0.299s-0.222-0.824-0.291-1.077
		c0.069-0.079,0.085-0.096,0.165-0.188c0.113,0.036,0.14,0.042,0.241,0.079c0.071,0.252,0.296,1.074,0.296,1.074
		s0.83-0.222,1.076-0.291c0.087,0.069,0.109,0.085,0.201,0.165c-0.043,0.113-0.051,0.138-0.086,0.238
		c-0.25,0.07-1.078,0.301-1.078,0.301l0.775,2.828l0.447-0.126c0.015,0,1.519-0.413,3.292-0.497l0.443-0.024v-3.159
		c0,0-0.941,0-1.229,0c-0.092-0.137-0.145-0.22-0.252-0.379c0.107-0.165,0.16-0.242,0.252-0.383c0.287,0,1.229,0,1.229,0
		s0-0.956,0-1.238c0.135-0.094,0.21-0.15,0.383-0.273c0.163,0.123,0.244,0.18,0.377,0.273c0,0.282,0,1.238,0,1.238s0.939,0,1.227,0
		c0.092,0.141,0.146,0.218,0.252,0.383c-0.105,0.159-0.16,0.242-0.252,0.379c-0.287,0-1.227,0-1.227,0v3.159l0.438,0.024
		c1.77,0.084,3.281,0.497,3.296,0.497l0.447,0.126l0.775-2.828c0,0-0.826-0.23-1.078-0.301c-0.033-0.101-0.041-0.125-0.086-0.238
		c0.1-0.08,0.112-0.096,0.197-0.165c0.253,0.069,1.078,0.291,1.078,0.291s0.225-0.822,0.296-1.074
		c0.105-0.037,0.128-0.043,0.244-0.079c0.077,0.093,0.098,0.109,0.168,0.188c-0.07,0.253-0.293,1.077-0.293,1.077
		s0.818,0.229,1.072,0.299c0.039,0.102,0.047,0.128,0.078,0.238c-0.088,0.085-0.104,0.1-0.189,0.17
		c-0.252-0.07-1.08-0.295-1.08-0.295l-0.771,2.867l0.395,0.15c1.448,0.539,2.572,1.463,2.582,1.474l0.419,0.344l0.277-0.458
		l1.009-1.683c0,0-0.653-0.423-0.854-0.55c-0.008-0.089-0.008-0.111-0.013-0.213c0.071-0.041,0.086-0.049,0.157-0.086
		c0.214,0.126,0.895,0.535,0.895,0.535s0.424-0.7,0.55-0.913c0.092-0.002,0.112-0.002,0.208-0.013
		c0.049,0.094,0.051,0.112,0.096,0.193c-0.17,0.283-1.797,3.046-2.709,4.601c-1.007-1.506-4.256-2.639-7.979-2.639
		C81.786,84.201,78.533,85.334,77.532,86.84z M69.084,106.645c0.028-0.462,0.253-1.52,1.728-1.427l0.181,0.015l0.137-0.107
		c0.126-0.106,0.552-0.54,0.639-1.907c0.065-0.96-0.24-2.051-0.56-3.198c-0.384-1.373-0.819-2.928-0.71-4.543
		c0.116-1.782,0.775-3.247,1.911-4.238c1.141-1.005,2.759-1.493,4.541-1.375c1.02,0.062,1.888,0.474,2.496,1.17
		c0.629,0.718,0.946,1.692,0.885,2.677c-0.044,0.67-0.303,1.224-0.732,1.609c-0.425,0.367-0.977,0.542-1.609,0.499
		c-1.11-0.073-1.788-0.802-1.717-1.855c0.015-0.289,0.159-0.721,0.484-1.003c0.229-0.202,0.515-0.293,0.84-0.273
		c0.617,0.039,0.916,0.566,0.894,0.937l0.922,0.055c0-0.032,0-0.062,0-0.094c0-0.579-0.317-1.172-0.856-1.52l0.008-0.008
		c-0.958-0.687-2.523-0.702-3.904-0.047c-1.767,0.836-2.858,2.558-2.999,4.72c-0.141,2.082,0.199,3.579,0.496,4.896
		c0.253,1.127,0.473,2.09,0.389,3.273c-0.092,1.467-0.519,3.188-2.012,3.089C69.67,107.929,69.035,107.343,69.084,106.645z
		 M68.772,111.326c0.027-0.081,0.067-0.167,0.104-0.248c0.032-0.071,0.069-0.148,0.109-0.212c0.488-0.873,1.38-1.512,2.94-1.512
		c1.827,0,2.676,1.521,2.676,2.554c0,1.285-0.906,2.212-2.151,2.212c-1.095,0-1.794-0.672-1.794-1.703
		c0-0.171,0.036-0.375,0.115-0.568c0.024-0.047,0.047-0.105,0.069-0.15c0.035-0.067,0.08-0.128,0.127-0.185
		c0.194-0.247,0.479-0.426,0.896-0.426c0.552,0,0.869,0.417,0.918,0.766c0.004,0.026,0.008,0.061,0.008,0.081h0.928
		c0-0.856-0.748-1.778-1.854-1.778c-0.817,0-1.433,0.43-1.794,1.018l0,0v0.01c-0.069,0.11-0.127,0.228-0.173,0.348
		c-0.216,0.501-0.319,1.089-0.319,1.735c0,1.59,0.588,3.459,1.418,4.802c1.259,2.043,2.419,3.88,3.108,4.959
		c-0.682-0.178-1.776-0.464-1.776-0.464s-0.404,0.98-0.648,1.572c-0.639-1.377-1.811-4.077-2.55-6.732
		c-0.411-1.44-0.684-2.864-0.684-4.065C68.447,112.675,68.53,111.969,68.772,111.326z M68.226,120.87
		c0.169-0.419,0.346-0.849,0.447-1.29l0.024-0.079c0.015-0.064,0.029-0.124,0.047-0.183c1.061,3.18,2.446,5.974,2.544,6.156
		l0.457,0.905c0,0,0.92-2.205,1.13-2.714c0.562,0.145,3.29,0.86,3.29,0.86l-0.642-1.003c-0.019-0.024-1.766-2.74-3.739-5.945
		c-0.594-0.956-0.993-2.102-1.17-3.163c0.472,0.398,1.099,0.633,1.837,0.633c0.93,0,1.746-0.377,2.306-1.006
		c0.189,4.739,1.251,9.154,3.04,12.564c2.034,3.888,4.778,6.026,7.721,6.026c2.935,0,5.679-2.139,7.711-6.026
		c1.789-3.41,2.853-7.825,3.052-12.564c0.55,0.629,1.366,1.006,2.296,1.006c0.74,0,1.367-0.234,1.837-0.633
		c-0.175,1.062-0.584,2.207-1.168,3.163c-1.976,3.205-3.723,5.921-3.741,5.945l-0.644,1.003c0,0,2.732-0.716,3.292-0.86
		c0.21,0.509,1.13,2.714,1.13,2.714l0.457-0.905c0.09-0.183,1.483-2.977,2.544-6.156c0.014,0.059,0.034,0.118,0.047,0.183
		l0.018,0.079c0.108,0.441,0.287,0.871,0.454,1.29c0.289,0.734,0.592,1.485,0.592,2.358c0,0.554-0.181,3.357-3.778,4.063
		c-1.951,0.378-3.407,0.879-5.518,2.429c-1.286,0.944-1.992,1.857-2.519,2.525c-0.171,0.226-0.326,0.423-0.469,0.582
		c-2.173,2.408-5.043,2.526-5.593,2.526c-0.56,0-3.433-0.118-5.599-2.526c-0.145-0.159-0.3-0.356-0.479-0.582
		c-0.515-0.668-1.231-1.581-2.511-2.525c-2.11-1.55-3.564-2.051-5.518-2.429c-3.602-0.706-3.784-3.51-3.784-4.063
		C67.628,122.355,67.935,121.604,68.226,120.87z M63.784,113.167l1.186-1.182v2.075c0,0.1-0.004,0.193-0.004,0.283L63.784,113.167z
		 M106.242,120.177c0.441,0.896,0.599,2.16,0.599,3.052c0,1.06-0.293,3.752-3.01,5.921c-1.229,0.984-2.258,1.204-3.343,1.428
		c-0.817,0.178-1.664,0.358-2.639,0.843c-2.116,1.058-2.894,2.067-3.457,2.8l-0.1,0.128c-3.097,4.002-7.172,4.436-8.775,4.436
		c-1.611,0-5.679-0.434-8.791-4.436l-0.096-0.128c-0.56-0.732-1.337-1.742-3.453-2.8c-0.975-0.484-1.821-0.665-2.639-0.843
		c-1.085-0.224-2.112-0.443-3.345-1.428c-2.715-2.169-3.008-4.861-3.008-5.921c0-0.892,0.157-2.156,0.599-3.052
		c0.796-1.634,1.11-3.352,1.11-6.116v-2.734h1.893c-0.179,0.594-0.267,1.262-0.267,2.012c0,1.237,0.265,2.68,0.657,4.125
		c-0.116,0.734-0.256,1.3-0.381,1.811l-0.02,0.085c-0.096,0.373-0.248,0.753-0.415,1.168c-0.308,0.77-0.661,1.648-0.661,2.702
		c0,1.888,1.188,4.327,4.533,4.969c1.855,0.368,3.163,0.819,5.141,2.269c1.183,0.866,1.825,1.688,2.334,2.348
		c0.183,0.23,0.352,0.456,0.519,0.643c2.438,2.69,5.66,2.83,6.289,2.83c0.621,0,3.846-0.14,6.277-2.83
		c0.171-0.187,0.34-0.412,0.521-0.643c0.513-0.659,1.147-1.481,2.336-2.348c1.979-1.449,3.281-1.9,5.14-2.269
		c3.349-0.642,4.534-3.081,4.534-4.969c0-1.054-0.35-1.933-0.663-2.702c-0.162-0.415-0.319-0.795-0.411-1.168l-0.02-0.085
		c-0.127-0.511-0.271-1.076-0.385-1.811c0.395-1.445,0.657-2.888,0.657-4.125c0-0.75-0.09-1.418-0.267-2.012h1.895v2.734
		C105.132,116.825,105.44,118.543,106.242,120.177z M106.058,114.344c-0.001-0.09-0.001-0.184-0.001-0.283v-2.075l1.185,1.182
		L106.058,114.344z M40,153.412h181.721V62.554H40V153.412z M130.816,63.795h89.505v88.089h-89.505V63.795z M41.238,63.795h88.382
		v88.378H41.238V63.795z M79.452,122.402h-0.006v0.092c0,1.005,0.812,1.812,1.815,1.812l0.305-0.004v0.708
		c-0.004,0.785-0.382,1.476-0.952,1.921c0.179,0.258,0.35,0.509,0.535,0.738c0.808-0.612,1.333-1.581,1.333-2.673v-1.59h-1.221
		c-0.501,0-0.903-0.411-0.903-0.909l0.01-0.104c0-0.407-0.271-0.749-0.645-0.856v-0.005c-0.347-0.122-0.595-0.459-0.595-0.848
		c0-0.024,0-0.114,0.022-0.193c0.013-0.049,0.037-0.114,0.037-0.272c0-0.336-0.188-0.631-0.466-0.79l-0.005,0.007
		c-0.736-0.424-1.238-1.219-1.238-2.129c0-0.173,0.018-0.338,0.059-0.505l2.909,0.826l2.979,3.539l1.54-1.37l-0.008-2.034h-0.945
		c0,0,0.435-0.924,1.491-0.924c0.975,0,1.471,0.71,1.64,1.365l0.708,2.645l2.706-3.221l2.915-0.826
		c0.029,0.167,0.045,0.332,0.045,0.505c0,0.91-0.49,1.705-1.236,2.129v-0.007c-0.273,0.159-0.467,0.454-0.467,0.79
		c0,0.158,0.026,0.224,0.041,0.272c0.022,0.079,0.022,0.169,0.022,0.193c0,0.389-0.252,0.726-0.596,0.848v0.005
		c-0.377,0.107-0.647,0.449-0.647,0.856l0.011,0.104c0,0.498-0.403,0.909-0.902,0.909h-2.229c0,0,0.069,1.579-1.138,2.857
		c-0.269,0.292-0.682,1.067-0.226,2.02c0.47,1.004,1.435,1.451,1.435,1.451c0.348-0.179,0.901-0.621,0.901-0.621
		c-0.815-0.235-1.255-0.763-1.53-1.247c-0.212-0.384-0.096-0.813,0.165-1.056c0.356-0.33,0.765-1.042,0.934-1.478
		c0.22-0.551,0.308-1.031,0.308-1.031l1.381,0.004c1.002,0,1.812-0.808,1.812-1.812v-0.092h-0.002
		c0.72-0.238,1.232-0.918,1.232-1.717c0-0.157-0.016-0.308-0.059-0.452c1.018-0.578,1.709-1.67,1.709-2.926
		c0-0.582-0.145-1.123-0.409-1.602l-3.996,1.105l-1.79,2.137c0,0-0.143-0.463-0.259-0.975c-0.244-1.075-1.025-1.539-1.025-1.539
		l0.948-2.07l-1.55,0.307l-0.851-1.162l-0.882,1.164l-1.523-0.309l0.946,2.07c-0.617,0.426-1.074,1.138-1.074,2.063
		c0,0.079,0.002,0.191,0.002,0.191h1.066l0.006,0.676l-0.525,0.479l-2.549-3.033l-3.998-1.105c-0.259,0.479-0.403,1.02-0.403,1.602
		c0,1.256,0.689,2.348,1.707,2.926c-0.036,0.145-0.055,0.295-0.055,0.452C78.222,121.484,78.732,122.164,79.452,122.402z
		 M85.08,115.7l0.417-0.592l0.426,0.592l0.423-0.083l-0.195,0.434c0,0-0.362-0.082-0.646-0.082c-0.291,0-0.647,0.082-0.647,0.082
		l-0.201-0.434L85.08,115.7z"/>
	<g>
		<path d="M480.092,67.146c0-0.208,0.166-0.393,0.395-0.393h8.163c0.228,0,0.391,0.185,0.391,0.393v0.601
			c0,0.207-0.163,0.393-0.391,0.393h-6.963v5.679h5.947c0.207,0,0.393,0.187,0.393,0.393v0.602c0,0.208-0.186,0.392-0.393,0.392
			h-5.947v5.658c0,0.207-0.186,0.393-0.393,0.393h-0.808c-0.229,0-0.395-0.186-0.395-0.393V67.146z"/>
		<path d="M493.607,75.186c1.014,0,2.051,0.31,2.051,0.31c0.021-1.759-0.207-2.631-1.574-2.631c-1.307,0-2.403,0.415-2.839,0.56
			c-0.248,0.104-0.374-0.021-0.456-0.247l-0.207-0.56c-0.082-0.292,0.062-0.415,0.289-0.519c0.479-0.207,1.721-0.624,3.296-0.624
			c2.443,0,2.962,1.204,2.962,4.021v5.306c0,0.248-0.207,0.454-0.455,0.454h-0.395c-0.247,0-0.332-0.145-0.394-0.351l-0.185-0.643
			c-0.497,0.498-1.493,1.223-2.963,1.223c-1.679,0-2.964-1.202-2.964-3.129C489.774,76.53,491.142,75.186,493.607,75.186z
			 M493.007,80.095c1.181,0,2.216-0.661,2.633-1.284v-1.946c-0.312-0.165-1.08-0.375-2.032-0.375c-1.326,0-2.319,0.644-2.319,1.866
			C491.288,79.328,491.951,80.095,493.007,80.095z"/>
		<path d="M504.511,71.475c1.429,0,2.592,0.56,3.479,1.578c0.188,0.227,0.145,0.495-0.08,0.684l-0.333,0.31
			c-0.312,0.269-0.497,0.062-0.686-0.145c-0.663-0.747-1.427-1.037-2.401-1.037c-1.823,0-3.275,1.615-3.275,3.606
			c0,2.029,1.431,3.624,3.213,3.624c1.45,0,2.073-0.744,2.61-1.367c0.271-0.31,0.539-0.228,0.808,0.041l0.126,0.124
			c0.207,0.209,0.289,0.417,0.124,0.665c-0.725,1.056-2.012,1.927-3.605,1.927c-2.838,0-4.828-2.114-4.828-4.995
			C499.662,73.672,501.733,71.475,504.511,71.475z"/>
		<path d="M510.544,72.14c0-0.229,0.188-0.456,0.457-0.456h0.621c0.248,0,0.457,0.228,0.457,0.456v5.18
			c0,1.906,0.621,2.775,2.009,2.775c1.43,0,2.278-0.891,2.716-1.386V72.14c0-0.229,0.186-0.456,0.436-0.456h0.641
			c0.229,0,0.436,0.228,0.436,0.456v8.661c0,0.248-0.207,0.454-0.436,0.454h-0.333c-0.269,0-0.371-0.165-0.434-0.413l-0.186-0.601
			c-0.354,0.372-1.243,1.243-2.964,1.243c-2.757,0-3.42-1.658-3.42-4.186V72.14z"/>
		<path d="M521.658,67.208c0-0.227,0.206-0.454,0.452-0.454h0.624c0.227,0,0.456,0.228,0.456,0.454v13.593
			c0,0.248-0.229,0.454-0.456,0.454h-0.624c-0.246,0-0.452-0.206-0.452-0.454V67.208z"/>
		<path d="M525.887,73.011c-0.291,0-0.479-0.21-0.479-0.458V72.14c0-0.271,0.188-0.456,0.479-0.456h1.264v-2.651
			c0-0.25,0.229-0.435,0.455-0.457l0.644-0.041c0.246-0.021,0.435,0.207,0.435,0.456v2.693h2.818c0.269,0,0.476,0.186,0.476,0.456
			v0.413c0,0.248-0.207,0.458-0.476,0.458h-2.818v5.717c0,0.995,0.312,1.367,0.849,1.367c0.892,0,1.493-0.372,1.887-0.62
			c0.374-0.229,0.496-0.041,0.602,0.185l0.186,0.436c0.124,0.312,0.083,0.458-0.167,0.623c-0.413,0.289-1.408,0.767-2.693,0.767
			c-1.821,0-2.195-1.161-2.195-2.651v-5.822H525.887z"/>
		<path d="M537.472,75.186c1.015,0,2.051,0.31,2.051,0.31c0.021-1.759-0.206-2.631-1.573-2.631c-1.308,0-2.406,0.415-2.84,0.56
			c-0.248,0.104-0.374-0.021-0.456-0.247l-0.207-0.56c-0.084-0.292,0.062-0.415,0.289-0.519c0.478-0.207,1.721-0.624,3.296-0.624
			c2.443,0,2.962,1.204,2.962,4.021v5.306c0,0.248-0.207,0.454-0.455,0.454h-0.394c-0.25,0-0.333-0.145-0.395-0.351l-0.187-0.643
			c-0.495,0.498-1.49,1.223-2.963,1.223c-1.677,0-2.964-1.202-2.964-3.129C533.637,76.53,535.006,75.186,537.472,75.186z
			 M536.871,80.095c1.179,0,2.216-0.661,2.633-1.284v-1.946c-0.312-0.165-1.08-0.375-2.032-0.375c-1.325,0-2.321,0.644-2.321,1.866
			C535.15,79.328,535.815,80.095,536.871,80.095z"/>
		<path d="M548.086,71.475c1.573,0,2.651,0.602,2.651,0.602v-4.868c0-0.227,0.207-0.454,0.455-0.454h0.582
			c0.247,0,0.475,0.228,0.475,0.454v13.593c0,0.248-0.228,0.454-0.475,0.454H551.4c-0.208,0-0.332-0.165-0.415-0.393l-0.124-0.621
			c0,0-1.223,1.243-3.025,1.243c-2.424,0-4.289-2.301-4.289-5.035C543.547,73.651,545.205,71.475,548.086,71.475z M548.022,80.095
			c1.72,0,2.715-1.532,2.715-1.532v-5.159c0,0-1.119-0.539-2.445-0.539c-2.05,0-3.192,1.7-3.192,3.606
			C545.1,78.333,546.281,80.095,548.022,80.095z"/>
		<path d="M483.656,95.229c1.574,0,2.651,0.602,2.651,0.602v-4.87c0-0.225,0.207-0.454,0.455-0.454h0.582
			c0.246,0,0.475,0.229,0.475,0.454v13.593c0,0.25-0.229,0.456-0.475,0.456h-0.374c-0.208,0-0.332-0.165-0.415-0.393l-0.124-0.623
			c0,0-1.223,1.243-3.025,1.243c-2.424,0-4.289-2.299-4.289-5.033C479.117,97.405,480.775,95.229,483.656,95.229z M483.593,103.849
			c1.72,0,2.715-1.534,2.715-1.534v-5.157c0,0-1.119-0.541-2.444-0.541c-2.051,0-3.192,1.702-3.192,3.605
			C480.671,102.087,481.852,103.849,483.593,103.849z"/>
		<path d="M495.097,95.229c2.507,0,4.33,1.845,4.33,4.352c0,0.165-0.019,0.415-0.039,0.582c-0.022,0.248-0.229,0.413-0.436,0.413
			h-6.964c0.044,1.597,1.39,3.273,3.131,3.273c1.264,0,2.051-0.434,2.59-0.787c0.33-0.229,0.475-0.312,0.725,0.062l0.25,0.353
			c0.186,0.289,0.269,0.393-0.083,0.663c-0.58,0.454-1.844,1.097-3.504,1.097c-2.899,0-4.641-2.278-4.641-5.015
			C490.456,97.529,492.197,95.229,495.097,95.229z M497.895,99.353c-0.041-1.408-1.16-2.736-2.798-2.736
			c-1.615,0-2.899,1.243-3.085,2.736H497.895z"/>
		<path d="M509.05,90.589c0.043-0.166,0.206-0.291,0.373-0.291h0.333c0.145,0,0.31,0.104,0.351,0.227l4.102,11.418
			c0.043,0,0.064,0,0.105,0l4.041-11.418c0.04-0.122,0.207-0.227,0.352-0.227h0.332c0.163,0,0.331,0.125,0.372,0.291l2.672,13.923
			c0.062,0.291-0.062,0.497-0.373,0.497h-0.826c-0.168,0-0.333-0.145-0.374-0.291l-1.845-10.67c-0.021,0-0.063,0-0.082,0
			l-3.814,10.94c-0.041,0.124-0.225,0.228-0.351,0.228h-0.374c-0.124,0-0.31-0.104-0.352-0.228l-3.854-10.94
			c-0.02,0-0.062,0-0.081,0l-1.803,10.67c-0.022,0.146-0.209,0.291-0.374,0.291h-0.83c-0.308,0-0.434-0.206-0.372-0.497
			L509.05,90.589z"/>
		<path d="M527.874,98.938c1.014,0,2.051,0.312,2.051,0.312c0.021-1.761-0.207-2.633-1.574-2.633c-1.307,0-2.403,0.417-2.839,0.56
			c-0.248,0.105-0.374-0.019-0.457-0.247l-0.206-0.561c-0.083-0.289,0.062-0.413,0.289-0.518c0.479-0.207,1.72-0.622,3.298-0.622
			c2.441,0,2.959,1.204,2.959,4.021v5.304c0,0.25-0.206,0.456-0.454,0.456h-0.395c-0.248,0-0.33-0.145-0.395-0.351l-0.184-0.643
			c-0.5,0.496-1.493,1.221-2.964,1.221c-1.679,0-2.963-1.202-2.963-3.129C524.041,100.286,525.408,98.938,527.874,98.938z
			 M527.272,103.849c1.182,0,2.218-0.663,2.633-1.285v-1.947c-0.312-0.165-1.079-0.373-2.031-0.373
			c-1.326,0-2.319,0.644-2.319,1.864C525.555,103.082,526.218,103.849,527.272,103.849z"/>
		<path d="M533.909,96.763c-0.291,0-0.479-0.208-0.479-0.456v-0.415c0-0.269,0.188-0.454,0.479-0.454h1.264v-2.652
			c0-0.249,0.228-0.436,0.455-0.458l0.642-0.041c0.248-0.019,0.437,0.208,0.437,0.458v2.693h2.818c0.269,0,0.476,0.186,0.476,0.454
			v0.415c0,0.248-0.207,0.456-0.476,0.456h-2.818v5.719c0,0.995,0.312,1.367,0.849,1.367c0.89,0,1.491-0.372,1.885-0.622
			c0.374-0.227,0.498-0.041,0.604,0.188l0.186,0.434c0.122,0.31,0.083,0.456-0.167,0.621c-0.413,0.291-1.408,0.767-2.693,0.767
			c-1.823,0-2.195-1.161-2.195-2.651v-5.822H533.909z"/>
		<path d="M546.446,95.229c2.507,0,4.331,1.845,4.331,4.352c0,0.165-0.021,0.415-0.042,0.582c-0.021,0.248-0.227,0.413-0.436,0.413
			h-6.961c0.041,1.597,1.39,3.273,3.128,3.273c1.264,0,2.051-0.434,2.592-0.787c0.33-0.229,0.476-0.312,0.725,0.062l0.248,0.353
			c0.186,0.289,0.269,0.393-0.082,0.663c-0.581,0.454-1.845,1.097-3.503,1.097c-2.899,0-4.642-2.278-4.642-5.015
			C541.805,97.529,543.547,95.229,546.446,95.229z M549.242,99.353c-0.039-1.408-1.158-2.736-2.796-2.736
			c-1.617,0-2.899,1.243-3.087,2.736H549.242z"/>
		<path d="M553.291,95.892c0-0.228,0.207-0.454,0.457-0.454h0.33c0.209,0,0.333,0.082,0.372,0.289l0.21,0.725
			c0,0,0.994-1.223,2.962-1.223c1.429,0,2.195,0.519,2.816,1.512c0.124-0.08,1.493-1.512,3.42-1.512
			c2.775,0,3.438,1.805,3.438,4.269v5.056c0,0.25-0.206,0.456-0.454,0.456h-0.622c-0.25,0-0.456-0.206-0.456-0.456v-5.056
			c0-1.78-0.58-2.881-2.032-2.881c-1.553,0-2.422,1.017-2.775,1.308c0.083,0.413,0.124,1.078,0.124,1.573v5.056
			c0,0.25-0.207,0.456-0.456,0.456h-0.62c-0.229,0-0.456-0.206-0.456-0.456v-5.056c0-1.823-0.602-2.881-2.156-2.881
			c-1.699,0-2.568,1.328-2.568,1.328v6.608c0,0.25-0.228,0.456-0.457,0.456h-0.619c-0.25,0-0.457-0.206-0.457-0.456V95.892z"/>
		<path d="M573.522,98.938c1.014,0,2.051,0.312,2.051,0.312c0.021-1.761-0.207-2.633-1.574-2.633c-1.307,0-2.403,0.417-2.839,0.56
			c-0.248,0.105-0.374-0.019-0.457-0.247l-0.206-0.561c-0.083-0.289,0.062-0.413,0.289-0.518c0.479-0.207,1.72-0.622,3.296-0.622
			c2.443,0,2.961,1.204,2.961,4.021v5.304c0,0.25-0.206,0.456-0.454,0.456h-0.395c-0.248,0-0.332-0.145-0.395-0.351l-0.184-0.643
			c-0.498,0.496-1.493,1.221-2.964,1.221c-1.679,0-2.963-1.202-2.963-3.129C569.689,100.286,571.057,98.938,573.522,98.938z
			 M572.921,103.849c1.182,0,2.217-0.663,2.633-1.285v-1.947c-0.312-0.165-1.079-0.373-2.031-0.373
			c-1.326,0-2.319,0.644-2.319,1.864C571.203,103.082,571.866,103.849,572.921,103.849z M571.678,92.929
			c-0.082-0.166,0-0.331,0.124-0.393l3.108-1.741c0.126-0.083,0.436-0.124,0.539,0.062l0.373,0.745
			c0.083,0.165,0.04,0.374-0.124,0.436l-3.337,1.388c-0.289,0.126-0.394,0.126-0.477-0.039L571.678,92.929z"/>
		<path d="M579.556,96.763c-0.289,0-0.477-0.208-0.477-0.456v-0.415c0-0.269,0.188-0.454,0.477-0.454h1.266v-2.652
			c0-0.249,0.228-0.436,0.455-0.458l0.642-0.041c0.248-0.019,0.437,0.208,0.437,0.458v2.693h2.818c0.269,0,0.475,0.186,0.475,0.454
			v0.415c0,0.248-0.206,0.456-0.475,0.456h-2.818v5.719c0,0.995,0.312,1.367,0.849,1.367c0.89,0,1.491-0.372,1.885-0.622
			c0.374-0.227,0.498-0.041,0.604,0.188l0.184,0.434c0.124,0.31,0.085,0.456-0.165,0.621c-0.413,0.291-1.41,0.767-2.693,0.767
			c-1.823,0-2.195-1.161-2.195-2.651v-5.822H579.556z"/>
		<path d="M587.661,91.853c0-0.663,0.498-1.161,1.119-1.161c0.643,0,1.14,0.498,1.14,1.161c0,0.601-0.497,1.119-1.14,1.119
			C588.159,92.972,587.661,92.453,587.661,91.853z M588.056,95.892c0-0.228,0.206-0.454,0.454-0.454h0.622
			c0.227,0,0.456,0.227,0.456,0.454v8.661c0,0.25-0.229,0.456-0.456,0.456h-0.622c-0.248,0-0.454-0.206-0.454-0.456V95.892z"/>
		<path d="M597.051,95.229c1.429,0,2.59,0.56,3.479,1.576c0.188,0.229,0.145,0.495-0.081,0.684l-0.332,0.312
			c-0.312,0.267-0.498,0.06-0.686-0.146c-0.663-0.746-1.427-1.037-2.401-1.037c-1.824,0-3.275,1.617-3.275,3.605
			c0,2.032,1.431,3.627,3.213,3.627c1.45,0,2.071-0.746,2.608-1.367c0.272-0.31,0.541-0.228,0.81,0.041l0.126,0.124
			c0.206,0.208,0.289,0.415,0.122,0.663c-0.725,1.057-2.01,1.927-3.604,1.927c-2.84,0-4.828-2.112-4.828-4.993
			C592.202,97.426,594.273,95.229,597.051,95.229z"/>
		<path d="M606.275,98.938c1.014,0,2.05,0.312,2.05,0.312c0.023-1.761-0.206-2.633-1.573-2.633c-1.307,0-2.403,0.417-2.84,0.56
			c-0.247,0.105-0.371-0.019-0.456-0.247l-0.206-0.561c-0.083-0.289,0.062-0.413,0.291-0.518c0.477-0.207,1.72-0.622,3.296-0.622
			c2.442,0,2.961,1.204,2.961,4.021v5.304c0,0.25-0.208,0.456-0.454,0.456h-0.395c-0.25,0-0.332-0.145-0.395-0.351l-0.186-0.643
			c-0.498,0.496-1.493,1.221-2.964,1.221c-1.679,0-2.963-1.202-2.963-3.129C602.442,100.286,603.812,98.938,606.275,98.938z
			 M605.674,103.849c1.182,0,2.218-0.663,2.633-1.285v-1.947c-0.312-0.165-1.078-0.373-2.031-0.373
			c-1.326,0-2.319,0.644-2.319,1.864C603.956,103.082,604.618,103.849,605.674,103.849z"/>
		<path d="M613.676,102.731c1.016,0,1.555,1.014,1.555,2.277c0,1.576-0.684,2.673-1.408,3.461c-0.124,0.124-0.229,0.102-0.33,0.019
			l-0.395-0.351c-0.146-0.145-0.085-0.269,0.021-0.374c0.58-0.619,1.16-1.386,1.16-2.464c0-0.146-0.022-0.312-0.084-0.477
			c-0.145,0.104-0.476,0.186-0.684,0.186c-0.663,0-0.993-0.56-0.993-1.016C612.518,103.269,612.931,102.731,613.676,102.731z"/>
		<path d="M478.248,128.224l6.299-13.945c0.062-0.122,0.165-0.228,0.353-0.228h0.207c0.186,0,0.289,0.105,0.351,0.228l6.258,13.945
			c0.126,0.269-0.042,0.539-0.352,0.539h-0.83c-0.186,0-0.312-0.126-0.351-0.229l-1.533-3.417h-7.355l-1.514,3.417
			c-0.041,0.104-0.167,0.229-0.351,0.229h-0.83C478.287,128.763,478.124,128.492,478.248,128.224z M488.088,123.831
			c-1.014-2.259-2.007-4.537-3.025-6.798h-0.163l-3.025,6.798H488.088z"/>
		<path d="M493.009,127.829c-0.105-0.103-0.145-0.249-0.062-0.415l0.289-0.537c0.124-0.229,0.291-0.312,0.56-0.124
			c0.333,0.248,1.159,0.85,2.384,0.85c0.975,0,1.637-0.457,1.637-1.202c0-0.913-0.747-1.284-2.135-1.968
			c-1.264-0.624-2.716-1.308-2.716-2.945c0-0.993,0.746-2.505,2.964-2.505c1.243,0,2.279,0.413,2.736,0.746
			c0.206,0.167,0.247,0.373,0.103,0.642l-0.208,0.393c-0.145,0.271-0.454,0.291-0.663,0.167c-0.413-0.249-1.076-0.56-1.968-0.56
			c-1.058,0-1.408,0.602-1.408,1.058c0,0.849,0.662,1.16,1.823,1.697c1.656,0.767,3.087,1.39,3.087,3.129
			c0,1.514-1.307,2.736-3.252,2.736C494.582,128.99,493.504,128.286,493.009,127.829z"/>
		<path d="M501.278,120.515c-0.289,0-0.477-0.206-0.477-0.454v-0.417c0-0.267,0.188-0.454,0.477-0.454h1.265v-2.652
			c0-0.247,0.229-0.436,0.454-0.456l0.645-0.041c0.247-0.021,0.436,0.208,0.436,0.456v2.693h2.818c0.269,0,0.476,0.188,0.476,0.454
			v0.417c0,0.248-0.207,0.454-0.476,0.454h-2.818v5.721c0,0.995,0.31,1.367,0.849,1.367c0.89,0,1.491-0.372,1.886-0.624
			c0.373-0.226,0.497-0.041,0.601,0.188l0.186,0.436c0.124,0.31,0.083,0.454-0.165,0.621c-0.415,0.291-1.41,0.767-2.692,0.767
			c-1.824,0-2.197-1.161-2.197-2.652v-5.823H501.278z"/>
		<path d="M509.776,119.644c0-0.226,0.207-0.454,0.456-0.454h0.331c0.188,0,0.354,0.104,0.415,0.332l0.165,0.682
			c0,0,0.954-1.221,2.944-1.221c0.725,0,1.906,0.104,1.677,0.767l-0.271,0.745c-0.103,0.312-0.33,0.333-0.558,0.228
			c-0.229-0.102-0.58-0.267-1.036-0.267c-1.845,0-2.592,1.221-2.592,1.221v6.629c0,0.251-0.228,0.458-0.454,0.458h-0.622
			c-0.249,0-0.456-0.207-0.456-0.458V119.644z"/>
		<path d="M521.652,118.982c2.653,0,4.808,2.28,4.808,4.973c0,2.734-2.154,5.035-4.808,5.035c-2.651,0-4.808-2.301-4.808-5.035
			C516.845,121.263,519.001,118.982,521.652,118.982z M521.652,127.603c1.888,0,3.275-1.656,3.275-3.647
			c0-1.949-1.388-3.585-3.275-3.585c-1.884,0-3.294,1.636-3.294,3.585C518.358,125.946,519.769,127.603,521.652,127.603z"/>
		<path d="M529.077,119.644c0-0.226,0.207-0.454,0.457-0.454h0.33c0.209,0,0.333,0.082,0.374,0.289l0.208,0.725
			c0,0,1.223-1.221,3.212-1.221c2.775,0,3.459,1.803,3.459,4.269v5.054c0,0.251-0.228,0.458-0.457,0.458h-0.619
			c-0.25,0-0.456-0.207-0.456-0.458v-5.262c0-1.822-0.622-2.673-2.032-2.673c-1.801,0-2.942,1.328-2.942,1.328v6.606
			c0,0.251-0.228,0.458-0.455,0.458h-0.621c-0.25,0-0.457-0.207-0.457-0.458V119.644z"/>
		<path d="M544.436,118.982c2.653,0,4.807,2.28,4.807,4.973c0,2.734-2.153,5.035-4.807,5.035c-2.652,0-4.808-2.301-4.808-5.035
			C539.628,121.263,541.783,118.982,544.436,118.982z M544.436,127.603c1.887,0,3.274-1.656,3.274-3.647
			c0-1.949-1.388-3.585-3.274-3.585c-1.884,0-3.294,1.636-3.294,3.585C541.142,125.946,542.552,127.603,544.436,127.603z"/>
		<path d="M551.858,119.644c0-0.226,0.207-0.454,0.456-0.454h0.331c0.208,0,0.332,0.082,0.374,0.289l0.206,0.725
			c0,0,0.995-1.221,2.964-1.221c1.429,0,2.195,0.519,2.818,1.512c0.122-0.081,1.491-1.512,3.418-1.512
			c2.777,0,3.44,1.803,3.44,4.269v5.054c0,0.251-0.207,0.458-0.457,0.458h-0.621c-0.248,0-0.456-0.207-0.456-0.458v-5.054
			c0-1.782-0.579-2.881-2.03-2.881c-1.555,0-2.425,1.017-2.777,1.306c0.084,0.415,0.124,1.077,0.124,1.575v5.054
			c0,0.251-0.207,0.458-0.455,0.458h-0.621c-0.229,0-0.456-0.207-0.456-0.458v-5.054c0-1.823-0.602-2.881-2.156-2.881
			c-1.699,0-2.569,1.328-2.569,1.328v6.606c0,0.251-0.227,0.458-0.456,0.458h-0.62c-0.249,0-0.456-0.207-0.456-0.458V119.644z"/>
		<path d="M567.783,116.682c-0.084-0.167,0-0.332,0.124-0.392l3.108-1.741c0.123-0.085,0.434-0.126,0.537,0.062l0.373,0.746
			c0.083,0.165,0.042,0.373-0.124,0.434l-3.337,1.39c-0.289,0.124-0.393,0.124-0.475-0.041L567.783,116.682z M569.004,119.644
			c0-0.226,0.208-0.454,0.456-0.454h0.622c0.228,0,0.456,0.229,0.456,0.454v8.661c0,0.251-0.229,0.458-0.456,0.458h-0.622
			c-0.248,0-0.456-0.207-0.456-0.458V119.644z"/>
		<path d="M576.859,122.691c1.014,0,2.051,0.31,2.051,0.31c0.021-1.761-0.207-2.631-1.574-2.631c-1.307,0-2.405,0.415-2.839,0.56
			c-0.248,0.104-0.374-0.021-0.457-0.249l-0.206-0.559c-0.085-0.291,0.062-0.415,0.289-0.518c0.478-0.209,1.721-0.622,3.296-0.622
			c2.443,0,2.962,1.202,2.962,4.019v5.304c0,0.251-0.207,0.458-0.455,0.458h-0.395c-0.249,0-0.332-0.146-0.395-0.354l-0.186-0.642
			c-0.496,0.495-1.491,1.223-2.963,1.223c-1.678,0-2.964-1.202-2.964-3.129C573.024,124.038,574.394,122.691,576.859,122.691z
			 M576.257,127.603c1.181,0,2.218-0.665,2.633-1.285v-1.949c-0.311-0.165-1.078-0.371-2.03-0.371c-1.328,0-2.321,0.642-2.321,1.864
			C574.538,126.836,575.201,127.603,576.257,127.603z"/>
		<path d="M584.26,126.483c1.015,0,1.554,1.014,1.554,2.279c0,1.574-0.684,2.671-1.409,3.459c-0.123,0.124-0.227,0.104-0.33,0.021
			l-0.395-0.351c-0.145-0.146-0.082-0.271,0.021-0.374c0.581-0.621,1.161-1.388,1.161-2.466c0-0.145-0.021-0.31-0.083-0.477
			c-0.145,0.104-0.475,0.188-0.686,0.188c-0.663,0-0.993-0.56-0.993-1.016C583.1,127.021,583.515,126.483,584.26,126.483z"/>
		<path d="M593.881,114.652c0-0.207,0.165-0.395,0.395-0.395h8.163c0.228,0,0.393,0.188,0.393,0.395v0.601
			c0,0.207-0.165,0.395-0.393,0.395h-6.964v5.675h5.948c0.208,0,0.392,0.188,0.392,0.395v0.601c0,0.207-0.184,0.395-0.392,0.395
			h-5.948v5.656c0,0.207-0.186,0.395-0.392,0.395h-0.808c-0.229,0-0.395-0.188-0.395-0.395V114.652z"/>
		<path d="M603.853,116.682c-0.083-0.167,0-0.332,0.124-0.392l3.107-1.741c0.124-0.085,0.437-0.126,0.539,0.062l0.372,0.746
			c0.083,0.165,0.043,0.373-0.124,0.434l-3.335,1.39c-0.291,0.124-0.393,0.124-0.478-0.041L603.853,116.682z M605.075,119.644
			c0-0.226,0.206-0.454,0.456-0.454h0.62c0.229,0,0.456,0.229,0.456,0.454v8.661c0,0.251-0.228,0.458-0.456,0.458h-0.62
			c-0.25,0-0.456-0.207-0.456-0.458V119.644z"/>
		<path d="M609.346,127.829c-0.105-0.103-0.145-0.249-0.062-0.415l0.289-0.537c0.124-0.229,0.289-0.312,0.56-0.124
			c0.333,0.248,1.159,0.85,2.384,0.85c0.975,0,1.637-0.457,1.637-1.202c0-0.913-0.747-1.284-2.135-1.968
			c-1.264-0.624-2.716-1.308-2.716-2.945c0-0.993,0.746-2.505,2.964-2.505c1.243,0,2.279,0.413,2.734,0.746
			c0.208,0.167,0.25,0.373,0.104,0.642l-0.208,0.393c-0.145,0.271-0.454,0.291-0.663,0.167c-0.413-0.249-1.078-0.56-1.968-0.56
			c-1.058,0-1.408,0.602-1.408,1.058c0,0.849,0.662,1.16,1.823,1.697c1.658,0.767,3.087,1.39,3.087,3.129
			c0,1.514-1.307,2.736-3.252,2.736C610.917,128.99,609.841,128.286,609.346,127.829z"/>
		<path d="M617.863,115.606c0-0.665,0.498-1.161,1.119-1.161c0.643,0,1.141,0.496,1.141,1.161c0,0.601-0.498,1.119-1.141,1.119
			C618.361,116.726,617.863,116.207,617.863,115.606z M618.258,119.644c0-0.226,0.207-0.454,0.456-0.454h0.62
			c0.229,0,0.456,0.229,0.456,0.454v8.661c0,0.251-0.227,0.458-0.456,0.458h-0.62c-0.249,0-0.456-0.207-0.456-0.458V119.644z"/>
		<path d="M627.255,118.982c1.428,0,2.59,0.56,3.479,1.574c0.188,0.229,0.146,0.497-0.081,0.684l-0.333,0.312
			c-0.312,0.269-0.495,0.062-0.683-0.145c-0.663-0.746-1.43-1.037-2.404-1.037c-1.821,0-3.275,1.617-3.275,3.605
			c0,2.03,1.432,3.627,3.214,3.627c1.449,0,2.073-0.748,2.61-1.367c0.27-0.312,0.538-0.229,0.807,0.041l0.126,0.124
			c0.207,0.206,0.289,0.413,0.124,0.663c-0.725,1.057-2.011,1.927-3.605,1.927c-2.838,0-4.828-2.113-4.828-4.993
			C622.404,121.18,624.476,118.982,627.255,118.982z"/>
		<path d="M636.479,122.691c1.014,0,2.051,0.31,2.051,0.31c0.021-1.761-0.207-2.631-1.574-2.631c-1.307,0-2.405,0.415-2.839,0.56
			c-0.248,0.104-0.374-0.021-0.457-0.249l-0.206-0.559c-0.085-0.291,0.062-0.415,0.289-0.518c0.478-0.209,1.721-0.622,3.296-0.622
			c2.443,0,2.961,1.202,2.961,4.019v5.304c0,0.251-0.206,0.458-0.454,0.458h-0.395c-0.249,0-0.332-0.146-0.395-0.354l-0.186-0.642
			c-0.498,0.495-1.491,1.223-2.963,1.223c-1.678,0-2.964-1.202-2.964-3.129C632.645,124.038,634.014,122.691,636.479,122.691z
			 M635.877,127.603c1.181,0,2.218-0.665,2.633-1.285v-1.949c-0.311-0.165-1.078-0.371-2.03-0.371c-1.328,0-2.321,0.642-2.321,1.864
			C634.158,126.836,634.821,127.603,635.877,127.603z"/>
		<path d="M478.704,143.459c-0.124-0.31,0-0.517,0.372-0.517h0.869c0.187,0,0.354,0.104,0.415,0.27l2.716,7.605h0.041l3.232-7.605
			c0.062-0.166,0.227-0.27,0.413-0.27h0.768c0.372,0,0.517,0.228,0.372,0.539l-5.988,13.676c-0.062,0.145-0.246,0.289-0.413,0.289
			h-0.746c-0.374,0-0.541-0.248-0.395-0.58l1.845-4.37L478.704,143.459z"/>
		<path d="M501.504,137.803c2.091,0,3.604,0.727,5.015,1.927c0.165,0.167,0.186,0.417,0.021,0.582l-0.56,0.56
			c-0.167,0.207-0.331,0.185-0.541-0.022c-1.076-0.931-2.443-1.553-3.957-1.553c-3.271,0-5.778,2.755-5.778,5.966
			c0,3.192,2.507,5.948,5.778,5.948c1.805,0,2.86-0.622,3.957-1.554c0.21-0.167,0.374-0.146,0.541,0.019l0.477,0.478
			c0.163,0.124,0.124,0.415-0.021,0.56c-1.369,1.243-3.087,2.01-4.932,2.01c-4.145,0-7.481-3.294-7.481-7.438
			C494.022,141.14,497.359,137.803,501.504,137.803z"/>
		<path d="M513.237,142.734c2.651,0,4.808,2.28,4.808,4.973c0,2.734-2.156,5.037-4.808,5.037c-2.653,0-4.808-2.303-4.808-5.037
			C508.43,145.015,510.584,142.734,513.237,142.734z M513.237,151.354c1.886,0,3.273-1.656,3.273-3.647
			c0-1.947-1.388-3.583-3.273-3.583s-3.294,1.636-3.294,3.583C509.943,149.698,511.352,151.354,513.237,151.354z"/>
		<path d="M520.661,143.397c0-0.228,0.208-0.455,0.456-0.455h0.33c0.211,0,0.333,0.083,0.374,0.29l0.208,0.725
			c0,0,0.994-1.223,2.962-1.223c1.431,0,2.197,0.519,2.818,1.514c0.124-0.083,1.493-1.514,3.42-1.514
			c2.775,0,3.438,1.803,3.438,4.271v5.054c0,0.249-0.206,0.456-0.456,0.456h-0.62c-0.249,0-0.456-0.207-0.456-0.456v-5.054
			c0-1.784-0.58-2.881-2.032-2.881c-1.555,0-2.424,1.014-2.775,1.304c0.083,0.417,0.124,1.077,0.124,1.577v5.054
			c0,0.249-0.206,0.456-0.456,0.456h-0.622c-0.227,0-0.456-0.207-0.456-0.456v-5.054c0-1.825-0.601-2.881-2.154-2.881
			c-1.699,0-2.568,1.326-2.568,1.326v6.608c0,0.249-0.229,0.456-0.457,0.456h-0.621c-0.248,0-0.456-0.207-0.456-0.456V143.397z"/>
		<path d="M539.319,156.989c0,0.25-0.229,0.457-0.456,0.457h-0.601c-0.25,0-0.457-0.207-0.457-0.457v-13.592
			c0-0.228,0.207-0.455,0.457-0.455h0.351c0.229,0,0.289,0.062,0.395,0.311l0.145,0.456c0,0,1.161-0.975,2.881-0.975
			c2.608,0,4.453,2.259,4.453,4.995c0,2.797-1.884,5.015-4.515,5.015c-1.597,0-2.652-0.789-2.652-0.789V156.989z M541.742,151.354
			c1.844,0,3.19-1.554,3.19-3.647c0-1.862-1.16-3.583-3.087-3.583c-1.532,0-2.526,1.16-2.526,1.16v5.242
			C539.319,150.526,540.416,151.354,541.742,151.354z"/>
		<path d="M549.02,143.397c0-0.228,0.188-0.455,0.456-0.455h0.621c0.248,0,0.457,0.228,0.457,0.455v5.181
			c0,1.906,0.621,2.776,2.009,2.776c1.432,0,2.278-0.891,2.716-1.389v-6.568c0-0.228,0.186-0.455,0.436-0.455h0.641
			c0.229,0,0.436,0.228,0.436,0.455v8.661c0,0.249-0.207,0.456-0.436,0.456h-0.333c-0.269,0-0.371-0.165-0.434-0.413l-0.186-0.601
			c-0.354,0.371-1.243,1.243-2.964,1.243c-2.757,0-3.419-1.658-3.419-4.188V143.397z"/>
		<path d="M559.386,144.269c-0.29,0-0.478-0.208-0.478-0.456v-0.415c0-0.269,0.188-0.455,0.478-0.455h1.264v-2.653
			c0-0.247,0.229-0.434,0.454-0.454l0.645-0.041c0.247-0.022,0.436,0.206,0.436,0.454v2.694h2.818c0.269,0,0.476,0.187,0.476,0.455
			v0.415c0,0.248-0.207,0.456-0.476,0.456h-2.818v5.719c0,0.995,0.31,1.367,0.849,1.367c0.89,0,1.491-0.372,1.886-0.622
			c0.373-0.228,0.497-0.041,0.601,0.186l0.186,0.437c0.124,0.312,0.083,0.456-0.165,0.623c-0.415,0.289-1.41,0.767-2.692,0.767
			c-1.824,0-2.197-1.161-2.197-2.652v-5.823H559.386z"/>
		<path d="M570.972,146.445c1.017,0,2.051,0.308,2.051,0.308c0.022-1.76-0.206-2.629-1.573-2.629c-1.306,0-2.404,0.413-2.84,0.56
			c-0.246,0.104-0.372-0.022-0.456-0.25l-0.207-0.558c-0.082-0.293,0.062-0.417,0.291-0.519c0.478-0.208,1.721-0.623,3.296-0.623
			c2.443,0,2.962,1.202,2.962,4.019v5.306c0,0.249-0.209,0.456-0.455,0.456h-0.394c-0.25,0-0.333-0.145-0.395-0.352l-0.187-0.644
			c-0.499,0.497-1.492,1.225-2.963,1.225c-1.679,0-2.963-1.202-2.963-3.129C567.14,147.79,568.508,146.445,570.972,146.445z
			 M570.371,151.354c1.182,0,2.218-0.663,2.633-1.285v-1.947c-0.312-0.165-1.078-0.374-2.032-0.374
			c-1.325,0-2.319,0.643-2.319,1.867C568.652,150.588,569.315,151.354,570.371,151.354z"/>
		<path d="M581.877,142.734c1.428,0,2.59,0.56,3.478,1.575c0.188,0.228,0.146,0.498-0.08,0.684l-0.333,0.311
			c-0.312,0.271-0.495,0.063-0.684-0.143c-0.662-0.748-1.429-1.037-2.403-1.037c-1.821,0-3.273,1.615-3.273,3.605
			c0,2.03,1.43,3.625,3.214,3.625c1.449,0,2.071-0.746,2.608-1.367c0.27-0.312,0.538-0.228,0.807,0.041l0.126,0.124
			c0.207,0.208,0.291,0.415,0.124,0.665c-0.725,1.055-2.009,1.927-3.605,1.927c-2.84,0-4.826-2.115-4.826-4.996
			C577.028,144.932,579.098,142.734,581.877,142.734z"/>
		<path d="M587.62,139.358c0-0.663,0.499-1.161,1.119-1.161c0.642,0,1.14,0.498,1.14,1.161c0,0.601-0.498,1.119-1.14,1.119
			C588.119,140.478,587.62,139.959,587.62,139.358z M588.014,143.397c0-0.228,0.207-0.455,0.457-0.455h0.619
			c0.229,0,0.457,0.228,0.457,0.455v8.661c0,0.249-0.228,0.456-0.457,0.456h-0.619c-0.25,0-0.457-0.207-0.457-0.456V143.397z"/>
		<path d="M596.968,142.734c2.651,0,4.808,2.28,4.808,4.973c0,2.734-2.156,5.037-4.808,5.037s-4.808-2.303-4.808-5.037
			C592.16,145.015,594.316,142.734,596.968,142.734z M596.968,151.354c1.886,0,3.275-1.656,3.275-3.647
			c0-1.947-1.39-3.583-3.275-3.583c-1.885,0-3.294,1.636-3.294,3.583C593.674,149.698,595.083,151.354,596.968,151.354z
			 M594.876,140.436c-0.083-0.165,0-0.332,0.124-0.394l3.107-1.739c0.124-0.085,0.437-0.126,0.537,0.06l0.374,0.748
			c0.083,0.165,0.043,0.371-0.124,0.434l-3.337,1.388c-0.289,0.124-0.393,0.124-0.475-0.041L594.876,140.436z"/>
		<path d="M604.39,143.397c0-0.228,0.208-0.455,0.456-0.455h0.331c0.21,0,0.332,0.083,0.373,0.29l0.207,0.725
			c0,0,1.225-1.223,3.213-1.223c2.775,0,3.461,1.803,3.461,4.271v5.054c0,0.249-0.229,0.456-0.456,0.456h-0.622
			c-0.249,0-0.456-0.207-0.456-0.456v-5.263c0-1.823-0.621-2.672-2.032-2.672c-1.801,0-2.94,1.326-2.94,1.326v6.608
			c0,0.249-0.229,0.456-0.456,0.456h-0.622c-0.248,0-0.456-0.207-0.456-0.456V143.397z"/>
	</g>
	<g>
		<polygon fill="#00758D" points="431.418,106.344 429.345,110.998 433.597,110.998 431.482,106.344 		"/>
		<polygon fill="#00758D" points="396.504,106.344 394.431,110.998 398.683,110.998 396.568,106.344 		"/>
		<path fill="#00758D" d="M370.142,62.554v89.731h90.961V62.554H370.142z M389.289,103.383c0,0.212-0.169,0.401-0.401,0.401h-6.264
			v3.978h5.227c0.211,0,0.402,0.19,0.402,0.402v1.733c0,0.214-0.191,0.401-0.402,0.401h-5.227v5.354
			c0,0.212-0.189,0.401-0.401,0.401h-1.945c-0.233,0-0.402-0.189-0.402-0.401v-14.006c0-0.212,0.169-0.402,0.402-0.402h8.61
			c0.232,0,0.401,0.19,0.401,0.402V103.383z M403.21,116.055h-1.84c-0.317,0-0.466-0.126-0.614-0.423l-1.037-2.285h-6.324
			l-1.037,2.285c-0.084,0.211-0.275,0.423-0.614,0.423h-1.84c-0.317,0-0.486-0.276-0.358-0.55l6.578-14.238
			c0.063-0.128,0.169-0.233,0.36-0.233h0.211c0.212,0,0.296,0.105,0.36,0.233l6.516,14.238
			C403.696,115.778,403.527,116.055,403.21,116.055z M421.894,116.055h-1.925c-0.189,0-0.358-0.169-0.402-0.317l-1.246-8.019
			c-0.022,0-0.064,0-0.064,0l-3.703,8.315c-0.041,0.128-0.169,0.232-0.358,0.232h-0.382c-0.189,0-0.296-0.104-0.36-0.232
			l-3.744-8.315c0,0-0.041,0-0.062,0l-1.228,8.019c-0.021,0.148-0.19,0.317-0.382,0.317h-1.902c-0.275,0-0.444-0.189-0.403-0.486
			l2.519-14.216c0.021-0.169,0.148-0.319,0.381-0.319h0.338c0.169,0,0.297,0.087,0.36,0.212l4.653,9.985c0.044,0,0.044,0,0.064,0
			l4.653-9.985c0.063-0.125,0.169-0.212,0.36-0.212h0.338c0.233,0,0.361,0.15,0.382,0.319l2.495,14.216
			C422.339,115.865,422.17,116.055,421.894,116.055z M438.124,116.055h-1.84c-0.317,0-0.466-0.126-0.614-0.423l-1.036-2.285h-6.325
			l-1.037,2.285c-0.084,0.211-0.275,0.423-0.613,0.423h-1.841c-0.317,0-0.486-0.276-0.358-0.55l6.578-14.238
			c0.063-0.128,0.169-0.233,0.36-0.233h0.211c0.212,0,0.296,0.105,0.36,0.233l6.517,14.238
			C438.61,115.778,438.441,116.055,438.124,116.055z M450.472,103.383c0,0.212-0.169,0.401-0.401,0.401h-6.264v3.978h5.227
			c0.21,0,0.402,0.19,0.402,0.402v1.733c0,0.214-0.192,0.401-0.402,0.401h-5.227v5.354c0,0.212-0.189,0.401-0.401,0.401h-1.945
			c-0.233,0-0.402-0.189-0.402-0.401v-14.006c0-0.212,0.169-0.402,0.402-0.402h8.61c0.232,0,0.401,0.19,0.401,0.402V103.383z"/>
	</g>
</g>
</svg>
